<svg id="OBJECTS" xmlns="http://www.w3.org/2000/svg" viewBox="0 0 179.59 179.53"><defs><style>.cls-1,.cls-4{fill:#37474f;}.cls-2{fill:#81d4fa;}.cls-3{fill:#fff;}.cls-4{font-size:8.38px;font-family:Roboto-Medium, Roboto;font-weight:500;}</style></defs><title>icon</title><path class="cls-1" d="M135.33,63.31H44.26v55.62H82.42a9.29,9.29,0,0,0,15.34,0h37.57Z"/><path class="cls-2" d="M62.33,60.05c-8.78,3.76-15.47-2.51-15.47-2.51V109s6.69,6.27,15.47,2.51,19.23-6,26.75,1.2V61.25C81.56,54.09,71.11,56.29,62.33,60.05Z"/><path class="cls-2" d="M117.85,60.05c8.78,3.76,15.47-2.51,15.47-2.51V109s-6.69,6.27-15.47,2.51-19.23-6-26.76,1.2V61.25C98.62,54.09,109.07,56.29,117.85,60.05Z"/><path class="cls-3" d="M95,67a16.75,16.75,0,0,1,4.17-1.72,21.49,21.49,0,0,1,4.52-.55,29.94,29.94,0,0,1,9,1.43c1.45.45,2.86,1,4.26,1.56.69.3,1.38.6,2,.86a18.56,18.56,0,0,0,2.09.61,15.15,15.15,0,0,0,8.68-.81,14.59,14.59,0,0,1-4.25,1.53,14,14,0,0,1-4.57,0,18.14,18.14,0,0,1-4.36-1.36c-1.39-.53-2.78-1-4.2-1.47a34.29,34.29,0,0,0-8.68-1.62A19.84,19.84,0,0,0,95,67Z"/><path class="cls-3" d="M95,73.56a17.54,17.54,0,0,1,4.17-1.72,21.49,21.49,0,0,1,4.52-.55,29.64,29.64,0,0,1,9,1.44c1.45.44,2.86,1,4.26,1.55.69.31,1.38.6,2,.86a14.63,14.63,0,0,0,10.77-.2,14,14,0,0,1-4.25,1.53,13.74,13.74,0,0,1-4.57,0,18.58,18.58,0,0,1-4.36-1.35c-1.39-.54-2.78-1.06-4.2-1.48a34.73,34.73,0,0,0-8.68-1.62A19.84,19.84,0,0,0,95,73.56Z"/><path class="cls-3" d="M95,80.17a16.75,16.75,0,0,1,4.17-1.72,20.85,20.85,0,0,1,4.52-.55,29.63,29.63,0,0,1,9,1.43c1.45.44,2.86,1,4.26,1.56.69.3,1.38.6,2,.86a18.56,18.56,0,0,0,2.09.61,15.07,15.07,0,0,0,8.68-.82,14.33,14.33,0,0,1-4.25,1.54,13.74,13.74,0,0,1-4.57,0,17.69,17.69,0,0,1-4.36-1.35c-1.39-.53-2.78-1.06-4.2-1.47a34.75,34.75,0,0,0-8.68-1.63A20,20,0,0,0,95,80.17Z"/><path class="cls-3" d="M95,86.77a17.13,17.13,0,0,1,4.17-1.72,21.49,21.49,0,0,1,4.52-.55,29.94,29.94,0,0,1,9,1.43c1.45.45,2.86,1,4.26,1.56.69.3,1.38.6,2,.86a14.63,14.63,0,0,0,10.77-.2,14.59,14.59,0,0,1-4.25,1.53,14,14,0,0,1-4.57,0,18.58,18.58,0,0,1-4.36-1.35c-1.39-.54-2.78-1.06-4.2-1.48a34.73,34.73,0,0,0-8.68-1.62A19.84,19.84,0,0,0,95,86.77Z"/><path class="cls-3" d="M85.34,67a19.84,19.84,0,0,0-8.68-1.5A34.29,34.29,0,0,0,68,67.08c-1.42.42-2.81.94-4.2,1.47a18.14,18.14,0,0,1-4.36,1.36,14,14,0,0,1-4.57,0,14.59,14.59,0,0,1-4.25-1.53,15.15,15.15,0,0,0,8.68.81,18.73,18.73,0,0,0,2.1-.61c.67-.26,1.35-.56,2-.86,1.39-.57,2.81-1.11,4.25-1.56a30,30,0,0,1,9-1.43,21.49,21.49,0,0,1,4.52.55A16.75,16.75,0,0,1,85.34,67Z"/><path class="cls-3" d="M85.34,73.56a19.84,19.84,0,0,0-8.68-1.5A34.73,34.73,0,0,0,68,73.68c-1.42.42-2.81.94-4.2,1.48a18.58,18.58,0,0,1-4.36,1.35,13.74,13.74,0,0,1-4.57,0,14,14,0,0,1-4.25-1.53,15.07,15.07,0,0,0,8.68.81,15.29,15.29,0,0,0,2.1-.61c.67-.26,1.35-.55,2-.86,1.39-.57,2.81-1.11,4.25-1.55a29.69,29.69,0,0,1,9-1.44,21.49,21.49,0,0,1,4.52.55A17.54,17.54,0,0,1,85.34,73.56Z"/><path class="cls-3" d="M85.34,80.17a20,20,0,0,0-8.68-1.51A34.75,34.75,0,0,0,68,80.29c-1.42.41-2.81.94-4.2,1.47a17.69,17.69,0,0,1-4.36,1.35,13.74,13.74,0,0,1-4.57,0,14.33,14.33,0,0,1-4.25-1.54,15.07,15.07,0,0,0,8.68.82,18.73,18.73,0,0,0,2.1-.61c.67-.26,1.35-.56,2-.86,1.39-.58,2.81-1.12,4.25-1.56a29.68,29.68,0,0,1,9-1.43,20.85,20.85,0,0,1,4.52.55A16.75,16.75,0,0,1,85.34,80.17Z"/><path class="cls-3" d="M85.34,86.77a19.84,19.84,0,0,0-8.68-1.5A34.73,34.73,0,0,0,68,86.89c-1.42.42-2.81.94-4.2,1.48a18.58,18.58,0,0,1-4.36,1.35,14,14,0,0,1-4.57,0,14.59,14.59,0,0,1-4.25-1.53,14.69,14.69,0,0,0,10.78.2c.67-.26,1.35-.56,2-.86,1.39-.57,2.81-1.11,4.25-1.56a30,30,0,0,1,9-1.43,21.49,21.49,0,0,1,4.52.55A17.13,17.13,0,0,1,85.34,86.77Z"/><path class="cls-2" d="M175.12,118.56l-3.3,0s-.26.79-.53,1.57l-.6,1.54-.42-1.58c-.22-.79-.48-1.57-.48-1.57l-3.26-.13,2.65-1.78-.51-1.51c-.27-.75-.57-1.5-.57-1.5l2.73,1.86,2.58-2L173,115c-.11.39-.22.79-.31,1.09l-.16.49Z"/><path class="cls-2" d="M159.08,147.6,156,146.38l-2.17,2.5s.08-.83.15-1.65l.14-1.63-3-1.31,3.14-.67.07-3.22,1.85,2.71,1.58-.44,1.59-.47-2,2.61Z"/><path class="cls-2" d="M133.63,168.87l-2.42-2.21s-.73.39-1.47.76l-1.47.76,1.47-2.93-2.34-2.32,1.58.28,1.58.21,1.24-2.94.75,3.17,1.63.18,1.63.1s-.69.46-1.4.88l-1.43.83Z"/><path class="cls-2" d="M102.21,179.53l-1.45-3-1.64.2c-.82.12-1.65.17-1.65.17s.63-.51,1.23-1.09l1.19-1.13-1.33-3,2.77,1.6s.58-.54,1.13-1.14l1.09-1.18-.45,3.26,2.94,1.44-3.26.58Z"/><path class="cls-2" d="M69.07,178.11l-.29-3.28-.5-.12c-.3-.07-.71-.16-1.1-.28L65.59,174l1.53-.57c.76-.27,1.52-.6,1.52-.6l-.1-1.63c0-.82-.07-1.65-.07-1.65s.48.65,1,1.25l1,1.23,1.46-.66c.72-.31,1.44-.68,1.44-.68s-.4.72-.79,1.45l-.8,1.42s.53.62,1.1,1.2L74,175.92l-1.63-.29a10.18,10.18,0,0,1-1.11-.23l-.51-.11Z"/><path class="cls-2" d="M38.67,164.82l.93-3.18-1.34-1-.93-.66-.41-.31s.82,0,1.65,0l1.64,0,1-3.11,1,3.06,1.61-.1,1.59-.13-2.52,2.1,1.19,3.06-2.78-1.78-1.31,1Z"/><path class="cls-2" d="M15.15,141.44l2-2.61L15.35,136l3,1.18,2.09-2.54-.12,1.6c-.07.81-.07,1.6-.07,1.6l3.05,1-3.1,1,0,1.64c0,.82,0,1.64,0,1.64l-.32-.41c-.19-.24-.44-.57-.68-.91l-1-1.35Z"/><path class="cls-2" d="M1.64,111.14l2.81-1.72-.37-1.61-.29-1.63L5,107.31c.6.55,1.23,1.08,1.23,1.08L9,106.79l-1.31,2.9,1.23,1c.62.5,1.27,1,1.27,1l-3.3-.15L5.79,114.6s-.23-.79-.45-1.59c-.11-.4-.23-.8-.31-1.09l-.12-.51Z"/><path class="cls-2" d="M0,78l3.23-.6.07-.51.2-1.12c.14-.81.29-1.63.29-1.63l1.44,2.93,3.26-.47s-.6.54-1.17,1.1L6.2,78.85l1.6,2.76-3-1.31L3.69,81.5,2.63,82.74l.14-1.65L3,79.45Z"/><path class="cls-2" d="M10.42,46.52l3.25.63.82-1.43c.4-.73.86-1.42.86-1.42s0,.81.13,1.64l.18,1.63,3.18.73L15.9,49.55s.08.79.23,1.59l.28,1.58L14.08,50.4l-2.93,1.47,1.51-2.94-1.13-1.2Z"/><path class="cls-2" d="M31.53,20.93l1.4.86,1.39.89,2.6-2L36,23.8l2.72,1.84-1.6,0c-.81,0-1.6.07-1.6.07l-.67,3.13-1.32-3L31.92,26c-.83.07-1.63.19-1.63.19s.59-.58,1.23-1.11L32.77,24Z"/><path class="cls-2" d="M60.45,4.69l2,2.63.49-.16c.29-.1.69-.24,1.09-.34l1.59-.46-1,1.3c-.5.63-1,1.3-1,1.3l.93,1.34.93,1.36s-.74-.29-1.49-.54l-1.52-.51-.9,1.33c-.44.65-.86,1.34-.86,1.34s0-.82-.09-1.65S60.54,10,60.54,10s-.78-.25-1.56-.44l-1.59-.42,1.54-.61c.38-.15.77-.29,1.07-.39L60.49,8Z"/><path class="cls-2" d="M93.28,0l.46,1.58c.22.79.43,1.59.43,1.59l3.3.25L94.69,5.15l.77,3.19L94.25,7.28c-.6-.54-1.23-1-1.23-1l-2.6,1.86,1-3.1-1.3-1c-.66-.51-1.33-1-1.33-1s.82,0,1.65,0l1.65,0Z"/><path class="cls-2" d="M125.61,7.47l-.33,3.29,1.51.68c.76.33,1.48.73,1.48.73l-1.61.27-1.61.33L124.62,16,123.1,13.2s-.78.17-1.56.37L120,14l2.09-2.54L120.35,8.7l3.07,1.21Z"/><path class="cls-2" d="M153,26.13l-.74,1.47-.76,1.48,2.29,2.39-3.24-.59L149,33.76l-.18-1.59c-.09-.8-.21-1.6-.21-1.6l-3.18-.37,2.86-1.6L148,27c-.15-.82-.33-1.61-.33-1.61l.39.34.82.78,1.2,1.14Z"/><path class="cls-2" d="M171.88,53.42l-2.44,2.21s.35.75.64,1.53l.61,1.54L167.92,57l-2.53,2.12s.24-.78.41-1.55l.36-1.55-1.41-.77c-.7-.38-1.4-.74-1.4-.74l3.24-.45s.19-.81.31-1.61l.26-1.62.75,1.48.69,1.5Z"/><path class="cls-2" d="M179.59,85.69l-3.1,1.18.08,3.3-2-2.61-3.1,1L173.34,86l-1.06-1.23-1.06-1.19,3.19.75,1.73-2.8.25,3.3Z"/><text class="cls-4" transform="translate(56.48 34.55) rotate(-29.14)">L</text><text class="cls-4" transform="matrix(0.93, -0.37, 0.37, 0.93, 63.07, 31.04)">O</text><text class="cls-4" transform="matrix(0.97, -0.25, 0.25, 0.97, 71.45, 27.94)">L</text><text class="cls-4" transform="translate(78.98 26.18) rotate(-7.33)">S</text><text class="cls-4" transform="translate(87.16 25.37) rotate(-0.93)">Y</text><text class="cls-4" transform="matrix(0.99, 0.12, -0.12, 0.99, 95.39, 25.52)">S</text><text class="cls-4" transform="translate(103.53 26.74) rotate(14.52)">T</text><text class="cls-4" transform="matrix(0.93, 0.37, -0.37, 0.93, 111.47, 29.02)">E</text><text class="cls-4" transform="matrix(0.87, 0.5, -0.5, 0.87, 118.75, 32.07)">M</text><text class="cls-4" transform="matrix(0.86, 0.51, -0.51, 0.86, 51.34, 149.51)">F</text><text class="cls-4" transform="translate(58.66 153.66) rotate(23.8)">U</text><text class="cls-4" transform="translate(67.26 157.19) rotate(16.05)">N</text><text class="cls-4" transform="translate(76.75 159.64) rotate(8.1)">N</text><text class="cls-4" transform="translate(86.32 160.72) rotate(0.93)">Y</text><text class="cls-4" transform="translate(95.15 160.58) rotate(-5.1)"> </text><text class="cls-4" transform="matrix(0.98, -0.19, 0.19, 0.98, 100.68, 159.99)">T</text><text class="cls-4" transform="translate(109.33 158.09) rotate(-17.85)">E</text><text class="cls-4" transform="translate(117.38 155.26) rotate(-24.92)">S</text><text class="cls-4" transform="translate(125.32 151.31) rotate(-32.11)">T</text><polygon class="cls-1" points="156.47 102.43 141.91 102.43 141.91 77.09 156.47 77.09 150.38 89.76 156.47 102.43"/><polygon class="cls-1" points="23.12 77.09 37.68 77.09 37.68 102.43 23.12 102.43 29.2 89.76 23.12 77.09"/></svg>