<svg id="OBJECTS" xmlns="http://www.w3.org/2000/svg" viewBox="0 0 750 500"><defs><style>.cls-1,.cls-24{fill:#d6d6f9;}.cls-1,.cls-11,.cls-12,.cls-13,.cls-15,.cls-16,.cls-19,.cls-20,.cls-21,.cls-22,.cls-23,.cls-25,.cls-26,.cls-6,.cls-7,.cls-8{fill-rule:evenodd;}.cls-11,.cls-18,.cls-2{fill:#fff;}.cls-3,.cls-6{fill:#9c9dcc;}.cls-12,.cls-14,.cls-4{fill:#df6162;}.cls-13,.cls-5{fill:#edbd54;}.cls-7,.cls-9{fill:#484d9b;}.cls-8{fill:#1d135c;}.cls-10,.cls-22{fill:#de9396;}.cls-14{font-size:10.23px;}.cls-14,.cls-18{font-family:OpenSans-Bold, Open Sans;font-weight:700;}.cls-15,.cls-17{fill:#606ce6;}.cls-16{fill:#b64443;}.cls-18{font-size:25.35px;}.cls-19{fill:#c7c2df;}.cls-20{fill:#cf4a60;}.cls-21{fill:#100843;}.cls-23{fill:#c66061;}.cls-25{fill:#a32e35;}.cls-26{fill:#eabfc1;}</style></defs><title>Mesa de trabajo 1</title><path class="cls-1" d="M607,31.63c49.1,0,89.28,40.18,89.28,89.29h0A89.54,89.54,0,0,1,607,210.2h0a18,18,0,0,0-17.92,17.92h0A18,18,0,0,0,607,246h46.72a43.69,43.69,0,0,1,43.56,43.56h0a43.69,43.69,0,0,1-43.56,43.56,37.78,37.78,0,0,0-37.67,37.67h0a68.93,68.93,0,0,1-68.73,68.73H143.87a89.55,89.55,0,0,1-89.29-89.29h0c0-49.11,40.19-89.28,89.29-89.28h8.63a18,18,0,0,0,17.93-17.92h0a18,18,0,0,0-17.93-17.92H94.37a43.69,43.69,0,0,1-43.56-43.56h0A43.69,43.69,0,0,1,94.29,138h46.77a37.78,37.78,0,0,0,37.67-37.67h0a68.93,68.93,0,0,1,68.73-68.73Z"/><rect class="cls-2" x="207.69" y="184.18" width="26.69" height="44.49" rx="3.28"/><path class="cls-1" d="M216.34,197.87l4.32-6.46a.44.44,0,0,1,.38-.22.45.45,0,0,1,.38.22l4.31,6.46a.52.52,0,0,1,0,.54.46.46,0,0,1-.42.29h-8.63a.46.46,0,0,1-.42-.29A.55.55,0,0,1,216.34,197.87Z"/><path class="cls-1" d="M213.57,206.34l6.86-10.91a.7.7,0,0,1,.61-.36.71.71,0,0,1,.61.36l6.85,10.91a1,1,0,0,1,.07.92.75.75,0,0,1-.68.48H214.18a.73.73,0,0,1-.67-.48A1,1,0,0,1,213.57,206.34Z"/><path class="cls-1" d="M209.54,217.76l10.56-15.83a1.11,1.11,0,0,1,.94-.52,1.08,1.08,0,0,1,.93.52l10.57,15.83a1.37,1.37,0,0,1,.1,1.33,1.14,1.14,0,0,1-1,.7H210.47a1.12,1.12,0,0,1-1-.7A1.34,1.34,0,0,1,209.54,217.76Z"/><rect class="cls-3" x="240.94" y="184.18" width="26.69" height="44.49" rx="3.28"/><rect class="cls-4" x="174.44" y="184.18" width="26.69" height="44.49" rx="3.28"/><rect class="cls-5" x="274.19" y="184.18" width="26.69" height="44.49" rx="3.28"/><path class="cls-6" d="M162,213a6.56,6.56,0,1,0-6.56-6.55A6.57,6.57,0,0,0,162,213Z"/><path class="cls-1" d="M162.47,202.71a.88.88,0,0,1,1.25,1.25l-2.46,2.47,2.46,2.46a.88.88,0,0,1-1.25,1.25l-3.09-3.09a.88.88,0,0,1,0-1.25Z"/><path class="cls-6" d="M313.28,213a6.56,6.56,0,1,0-6.55-6.55A6.57,6.57,0,0,0,313.28,213Z"/><path class="cls-1" d="M312.85,202.71a.88.88,0,0,0-1.25,0,.89.89,0,0,0,0,1.25l2.47,2.47-2.47,2.46a.89.89,0,0,0,0,1.25.88.88,0,0,0,1.25,0l3.09-3.09a.88.88,0,0,0,0-1.25Z"/><path class="cls-7" d="M254.29,196.5a2.63,2.63,0,1,0-2.63-2.62A2.63,2.63,0,0,0,254.29,196.5Z"/><path class="cls-7" d="M254.29,209.05a2.63,2.63,0,1,0-2.63-2.62A2.63,2.63,0,0,0,254.29,209.05Z"/><path class="cls-7" d="M254.29,221.6a2.63,2.63,0,1,0-2.63-2.62A2.63,2.63,0,0,0,254.29,221.6Z"/><path class="cls-8" d="M184.08,209.71c1.55.68,2.61,3,3.26,5.07v-7a5.47,5.47,0,0,1-5.27-3.56,7.22,7.22,0,0,1-.49-3,3.93,3.93,0,0,1,.75-2.3,1.41,1.41,0,0,1,1.75-.41c1.55.68,2.61,3,3.26,5.07v-7a5.44,5.44,0,0,1-5.27-3.56,7.17,7.17,0,0,1-.49-3,4,4,0,0,1,.75-2.31,1.42,1.42,0,0,1,1.75-.41c1.55.69,2.61,3,3.26,5.07V192a.45.45,0,1,1,.89,0v4.43c.66-2.08,1.71-4.39,3.27-5.07a1.39,1.39,0,0,1,1.75.41,3.93,3.93,0,0,1,.75,2.3,7.07,7.07,0,0,1-.5,3,5.45,5.45,0,0,1-5.27,3.56v7c.66-2.07,1.71-4.38,3.27-5.07a1.42,1.42,0,0,1,1.75.41,4,4,0,0,1,.75,2.31,7,7,0,0,1-.5,3,5.43,5.43,0,0,1-5.27,3.56v7c.66-2.07,1.71-4.39,3.27-5.07a1.41,1.41,0,0,1,1.75.41,3.93,3.93,0,0,1,.75,2.3,7.07,7.07,0,0,1-.5,3,5.45,5.45,0,0,1-5.27,3.56v2.26a.45.45,0,1,1-.89,0v-6.2a5.44,5.44,0,0,1-5.27-3.56,7.14,7.14,0,0,1-.49-3,3.93,3.93,0,0,1,.75-2.3A1.39,1.39,0,0,1,184.08,209.71Z"/><path class="cls-7" d="M285.77,216.65a9.52,9.52,0,0,1-4.91-2.61l-.1-.11a9.41,9.41,0,0,1-2.67-6.57v-6.08a1.77,1.77,0,1,1,3.54,0v6.08a5.9,5.9,0,0,0,1.65,4.1l.08.08a6,6,0,0,0,2.41,1.46V191.72a1.77,1.77,0,1,1,3.54,0v12.2a6,6,0,0,0,4.14-5.64v-6.09a1.77,1.77,0,1,1,3.54,0v6.09a9.46,9.46,0,0,1-2.78,6.67h0a9.42,9.42,0,0,1-4.9,2.61v13.57a1.77,1.77,0,1,1-3.54,0Z"/><rect class="cls-3" x="235" y="65.77" width="75.28" height="107.76" rx="4.9"/><rect class="cls-9" x="227.19" y="55.13" width="75.28" height="107.76" rx="4.9"/><rect class="cls-2" x="234.92" y="66.21" width="17.53" height="17.53" rx="1.68"/><path class="cls-10" d="M236.6,89.67h14.18a1.68,1.68,0,0,1,1.68,1.68v14.18a1.67,1.67,0,0,1-1.67,1.67H236.6a1.68,1.68,0,0,1-1.68-1.68V91.34A1.68,1.68,0,0,1,236.6,89.67Z"/><rect class="cls-2" x="234.92" y="113.13" width="17.53" height="17.53" rx="1.68"/><rect class="cls-2" x="234.86" y="136.58" width="59.94" height="17.53" rx="1.68"/><rect class="cls-2" x="271.26" y="73.85" width="23.54" height="2.24" rx="1.12"/><rect class="cls-2" x="262.08" y="73.85" width="4.87" height="2.24" rx="1.12"/><rect class="cls-2" x="262.08" y="66.97" width="32.72" height="2.24" rx="1.12"/><path class="cls-11" d="M263.2,80.74h30.48a1.12,1.12,0,0,1,1.12,1.12h0A1.12,1.12,0,0,1,293.68,83H263.2a1.12,1.12,0,0,1-1.12-1.12h0A1.12,1.12,0,0,1,263.2,80.74Z"/><path class="cls-11" d="M284.5,97.31H263.2a1.13,1.13,0,0,0-1.12,1.12h0a1.12,1.12,0,0,0,1.12,1.12h21.3a1.12,1.12,0,0,0,1.12-1.12h0A1.12,1.12,0,0,0,284.5,97.31Z"/><path class="cls-11" d="M291.05,97.31h2.63a1.12,1.12,0,0,1,1.12,1.12h0a1.12,1.12,0,0,1-1.12,1.12h-2.63a1.12,1.12,0,0,1-1.12-1.12h0A1.12,1.12,0,0,1,291.05,97.31Z"/><rect class="cls-2" x="262.08" y="90.42" width="32.72" height="2.24" rx="1.12"/><path class="cls-11" d="M293.68,104.2H263.2a1.12,1.12,0,0,0-1.12,1.12h0a1.12,1.12,0,0,0,1.12,1.12h30.48a1.12,1.12,0,0,0,1.12-1.12h0A1.12,1.12,0,0,0,293.68,104.2Z"/><rect class="cls-2" x="271.26" y="120.77" width="23.54" height="2.24" rx="1.12"/><rect class="cls-2" x="262.08" y="120.77" width="4.87" height="2.24" rx="1.12"/><rect class="cls-2" x="262.08" y="113.88" width="32.72" height="2.24" rx="1.12"/><path class="cls-11" d="M263.2,127.66h30.48a1.12,1.12,0,0,1,1.12,1.12h0a1.12,1.12,0,0,1-1.12,1.12H263.2a1.12,1.12,0,0,1-1.12-1.12h0A1.12,1.12,0,0,1,263.2,127.66Z"/><path class="cls-12" d="M238.38,95a1,1,0,0,1-.08-1.33.93.93,0,0,1,1.32-.08l4,3.49,3.49-4a.94.94,0,1,1,1.42,1.24l-3.49,4,4,3.49a.92.92,0,0,1,.09,1.32.93.93,0,0,1-1.32.09l-4-3.49-3.49,4a.94.94,0,0,1-1.42-1.24l3.49-4Z"/><path class="cls-13" d="M239.12,122.93a.94.94,0,0,1,0-1.33,1,1,0,0,1,1.33,0l2,1.9,4.51-5.14a.94.94,0,1,1,1.42,1.24l-5.19,5.91a.94.94,0,0,1-1.33,0Z"/><path class="cls-13" d="M239.12,76a.94.94,0,1,1,1.3-1.35l2,1.89,4.51-5.13a.94.94,0,0,1,1.42,1.23l-5.19,5.92a.94.94,0,0,1-1.33,0Z"/><text class="cls-14" transform="translate(239.8 149.01)">CONFIRM</text><path class="cls-15" d="M228.34,58.64h65.49a5.77,5.77,0,0,1,4.08,1.7h0a5.77,5.77,0,0,1,1.7,4.08v98a5.8,5.8,0,0,1-5.78,5.78H228.34a5.75,5.75,0,0,1-4.08-1.7h0a5.77,5.77,0,0,1-1.7-4.08v-98a5.8,5.8,0,0,1,5.78-5.78Zm65.49,1.77H228.34a4,4,0,0,0-4,4v98a4,4,0,0,0,4,4h65.49a4,4,0,0,0,4-4v-98a4,4,0,0,0-1.18-2.83h0A4,4,0,0,0,293.83,60.41Z"/><rect class="cls-3" x="510.76" y="286.5" width="127.06" height="25.6" rx="5.25"/><rect class="cls-4" x="517.04" y="277.87" width="127.06" height="25.6" rx="5.25"/><polygon class="cls-11" points="530.96 283.19 533.29 288.25 538.83 288.9 534.73 292.68 535.83 298.15 530.96 295.43 526.1 298.15 527.19 292.69 523.1 288.9 528.63 288.25 530.96 283.19"/><polygon class="cls-11" points="554.85 283.19 557.18 288.25 562.72 288.9 558.62 292.68 559.71 298.15 554.85 295.43 549.98 298.15 551.07 292.69 546.98 288.9 552.51 288.25 554.85 283.19"/><polygon class="cls-11" points="578.73 283.19 581.06 288.25 586.6 288.9 582.5 292.68 583.59 298.15 578.73 295.43 573.87 298.15 574.96 292.69 570.86 288.9 576.4 288.25 578.73 283.19"/><polygon class="cls-11" points="602.61 283.19 604.94 288.25 610.48 288.9 606.39 292.68 607.48 298.15 602.61 295.43 597.75 298.15 598.84 292.69 594.74 288.9 600.28 288.25 602.61 283.19"/><polygon class="cls-11" points="626.5 283.19 628.83 288.25 634.36 288.9 630.27 292.68 631.36 298.15 626.5 295.43 621.63 298.15 622.72 292.69 618.63 288.9 624.16 288.25 626.5 283.19"/><path class="cls-16" d="M525.83,279.83H642.4a6.11,6.11,0,0,1,4.33,1.8h0a6.1,6.1,0,0,1,1.8,4.32v15.11a6.11,6.11,0,0,1-1.8,4.33h0a6.14,6.14,0,0,1-4.33,1.79H525.83a6.13,6.13,0,0,1-4.32-1.79h0a6.1,6.1,0,0,1-1.79-4.33V286a6.09,6.09,0,0,1,1.79-4.32h0a6.1,6.1,0,0,1,4.32-1.8ZM642.4,281.6H525.83a4.37,4.37,0,0,0-4.36,4.36v15.11a4.37,4.37,0,0,0,4.36,4.37H642.4a4.37,4.37,0,0,0,4.36-4.37V286a4.37,4.37,0,0,0-4.36-4.36Z"/><path class="cls-6" d="M410.39,72.69V66.33a2.21,2.21,0,0,0-2.21-2.2h-1.82V62.78a4.68,4.68,0,0,0-4.67-4.66H350.08a4.68,4.68,0,0,0-4.67,4.66V76.24a4.69,4.69,0,0,0,4.67,4.67h51.61a4.69,4.69,0,0,0,4.67-4.67V74.89h1.82A2.21,2.21,0,0,0,410.39,72.69Z"/><path class="cls-17" d="M393.78,58.82h11.67a2.2,2.2,0,0,1,2.2,2.2v6.36a2.21,2.21,0,0,1-2.21,2.21H393.78a2.21,2.21,0,0,1-2.21-2.21V61A2.21,2.21,0,0,1,393.78,58.82Z"/><rect class="cls-17" x="342.68" y="52.81" width="60.95" height="22.79" rx="4.67"/><rect class="cls-5" x="346.19" y="56.16" width="7.5" height="16.08" rx="1.54"/><rect class="cls-5" x="357.74" y="56.16" width="7.5" height="16.08" rx="1.54"/><rect class="cls-5" x="369.29" y="56.16" width="7.5" height="16.08" rx="1.54"/><rect class="cls-2" x="380.84" y="56.16" width="7.5" height="16.08" rx="1.54"/><rect class="cls-2" x="392.39" y="56.16" width="7.5" height="16.08" rx="1.54"/><path class="cls-11" d="M424.81,52.94l2.26,2.26a.39.39,0,0,1,.11.37.41.41,0,0,1-.25.28l-13.42,4.58a.39.39,0,0,1-.33-.7L420.61,55l-3.52-3.52a.34.34,0,0,1-.11-.34.35.35,0,0,1,.22-.28l11.37-5.19a.38.38,0,0,1,.43.07l4.69,4.58a.39.39,0,0,1,.11.39.38.38,0,0,1-.29.27Z"/><path class="cls-11" d="M434,70.61l2.63-3.82a.45.45,0,0,0,0-.52.62.62,0,0,0-.52-.28L412.9,64.63a.63.63,0,0,0-.68.43.54.54,0,0,0,.44.61l13.75,3.65-4.1,5.94a.48.48,0,0,0,0,.5.61.61,0,0,0,.47.3L443,79a.7.7,0,0,0,.66-.26l5.5-7.77a.44.44,0,0,0,0-.55.65.65,0,0,0-.57-.26Z"/><path class="cls-11" d="M411.1,58a1.41,1.41,0,1,0-1.4-1.4A1.41,1.41,0,0,0,411.1,58Z"/><path class="cls-11" d="M420.94,62.83a1.41,1.41,0,1,0-1.41-1.41A1.41,1.41,0,0,0,420.94,62.83Z"/><path class="cls-11" d="M411.88,75.16a3.51,3.51,0,1,0-3.51-3.51A3.52,3.52,0,0,0,411.88,75.16Z"/><path class="cls-6" d="M91.72,314.93a21.86,21.86,0,1,1-21.86,21.85,21.85,21.85,0,0,1,21.86-21.85Zm39.65-4.37a2.51,2.51,0,0,0-2.5,2.49v85.24a2.51,2.51,0,0,0,2.5,2.5H118.72a2.51,2.51,0,0,0,2.5-2.5V364.57a2.5,2.5,0,0,0-2.5-2.5h-10a2.5,2.5,0,0,0-2.49,2.5v33.72a2.51,2.51,0,0,0,2.49,2.5H96.56a3,3,0,0,0-3,3h0a3,3,0,0,0,3,3h79.61a3,3,0,0,0,3-3h0a3,3,0,0,0-3-3H164a2.51,2.51,0,0,0,2.5-2.5V342.4a2.5,2.5,0,0,0-2.5-2.49H154a2.51,2.51,0,0,0-2.5,2.49v55.89a2.51,2.51,0,0,0,2.5,2.5H141.36a2.51,2.51,0,0,0,2.5-2.5V313.05a2.51,2.51,0,0,0-2.5-2.49Z"/><rect class="cls-5" x="148.46" y="336.55" width="14.99" height="60.88" rx="2.5"/><rect class="cls-2" x="125.83" y="307.2" width="14.99" height="90.23" rx="2.5"/><rect class="cls-4" x="103.19" y="358.72" width="14.99" height="38.71" rx="2.5"/><path class="cls-15" d="M88.67,355.28a21.86,21.86,0,1,0-21.85-21.85A21.9,21.9,0,0,0,88.67,355.28Z"/><path class="cls-7" d="M93.51,397.43h79.62a3,3,0,0,1,3,3h0a3,3,0,0,1-3,3H93.51a3,3,0,0,1-3-3h0A3,3,0,0,1,93.51,397.43Z"/><rect class="cls-17" x="125.83" y="342.01" width="14.99" height="55.42" rx="2.5"/><text class="cls-18" transform="translate(74.29 342.48)">35</text><path class="cls-19" d="M622,167.34a44.7,44.7,0,1,0-44.69-44.69A44.78,44.78,0,0,0,622,167.34Z"/><path class="cls-7" d="M618.09,73A45.58,45.58,0,1,1,585.86,86.3,45.43,45.43,0,0,1,618.09,73Zm31,14.6a43.81,43.81,0,1,0,12.83,31A43.67,43.67,0,0,0,649.07,87.55Z"/><path class="cls-11" d="M618.09,153.37a34.85,34.85,0,1,0-34.85-34.84A34.91,34.91,0,0,0,618.09,153.37Z"/><rect class="cls-9" x="617.33" y="85.92" width="1.52" height="3.36" rx="0.76"/><rect class="cls-9" x="617.33" y="147.78" width="1.52" height="3.36" rx="0.76"/><path class="cls-7" d="M634.39,90.29h0a.75.75,0,0,1,.28,1l-.92,1.6a.77.77,0,0,1-1,.28h0a.76.76,0,0,1-.27-1l.92-1.6A.75.75,0,0,1,634.39,90.29Z"/><path class="cls-7" d="M603.46,143.86h0a.75.75,0,0,1,.27,1l-.92,1.6a.76.76,0,0,1-1,.28h0a.76.76,0,0,1-.27-1l.92-1.6A.75.75,0,0,1,603.46,143.86Z"/><path class="cls-7" d="M646.33,102.22h0a.77.77,0,0,1-.28,1l-1.6.92a.75.75,0,0,1-1-.28h0a.75.75,0,0,1,.28-1l1.59-.92A.76.76,0,0,1,646.33,102.22Z"/><path class="cls-7" d="M592.76,133.15h0a.77.77,0,0,1-.28,1l-1.6.92a.75.75,0,0,1-1-.28h0a.74.74,0,0,1,.28-1l1.59-.93A.78.78,0,0,1,592.76,133.15Z"/><rect class="cls-9" x="647.34" y="117.77" width="3.36" height="1.52" rx="0.76"/><rect class="cls-9" x="585.48" y="117.77" width="3.36" height="1.52" rx="0.76"/><path class="cls-7" d="M646.33,134.83h0a.77.77,0,0,1-1,.28l-1.59-.92a.76.76,0,0,1-.28-1h0a.76.76,0,0,1,1-.28l1.6.93A.75.75,0,0,1,646.33,134.83Z"/><path class="cls-7" d="M592.76,103.9h0a.77.77,0,0,1-1,.28l-1.6-.92a.76.76,0,0,1-.27-1h0a.75.75,0,0,1,1-.27l1.6.92A.75.75,0,0,1,592.76,103.9Z"/><path class="cls-7" d="M634.39,146.77h0a.76.76,0,0,1-1-.28l-.93-1.6a.76.76,0,0,1,.28-1h0a.76.76,0,0,1,1,.27l.92,1.6A.77.77,0,0,1,634.39,146.77Z"/><path class="cls-7" d="M603.47,93.2h0a.75.75,0,0,1-1-.28l-.92-1.6a.75.75,0,0,1,.27-1h0a.76.76,0,0,1,1,.27l.92,1.6A.76.76,0,0,1,603.47,93.2Z"/><path class="cls-7" d="M619.16,118.53a1.08,1.08,0,0,1-2.15,0V93.38a1.08,1.08,0,0,1,2.15,0Z"/><path class="cls-20" d="M617.52,119.44a1.08,1.08,0,0,1-.34-1.48,1.07,1.07,0,0,1,1.48-.34l15.44,9.65a1.07,1.07,0,0,1-1.13,1.82Z"/><path class="cls-21" d="M462.69,163c10.39,18.69,31.73,26.69,11.88,54.47-14.89,20.84-44.85,37-13.45,62.89,18,14.86-110.83-12.62-110.83-12.62l11-64.29-2.41-31.55,59,7.54S462.06,161.56,462.69,163Z"/><path class="cls-15" d="M336,327.93c-1,12.08,4.41,30.92,8.49,42.07s3.18,45.78,1.78,57.36-1,23.34,3.81,30.7c0,0,42.55,24.34,122.61-4.45,0,0,6.55-8.71,4.58-22.52s-16.76-30.68-11.66-65.61c1.56-10.64,24.19-106,21.56-108.31-12.62-8.11-43.56-19.75-54.51-22.26-16.58-3.79-21.86.5-36,2.91-.83.14-31.41,11.29-33.54,13.08C351.94,260.25,336.73,319.28,336,327.93Z"/><path class="cls-13" d="M439.72,236.9a72.53,72.53,0,0,0-7.07-2c-16.58-3.79-21.86.5-36,2.91-.21,0-2.38.79-5.52,1.93-5.57,21.65-18,67.7-17.65,87.76.38,22.82,5.23,116.3,5.23,116.3h38.87s-.47-36.79-1.87-65.36-.67-48.64,1.87-57.13S434,257.48,439.72,236.9Z"/><path class="cls-11" d="M384.57,265.27v.05l0,.06v.11l0,.05v.06l0,0h0v.1l0,.05v.11l0,.06v.1l0,.06v.11l0,.05v.11l0,.06v0l0,.06v.11l0,.05v.11l0,0V267l0,.06v.22l0,0v.11l0,.06v.05l0,.11v.11l0,.11V268l0,.05,0,.11,0,.06v.05l0,.06v.11l0,.05v.11l0,.06v.11l0,0a83.19,83.19,0,0,0,28.12,8.33,62.81,62.81,0,0,0,17.43-.49l1-3.79a58.4,58.4,0,0,1-18.05.77,79.48,79.48,0,0,1-27.61-8.32Zm34,52.34c.3-1.08.63-2.32,1-3.69a83.59,83.59,0,0,1-16.37.54,103.73,103.73,0,0,1-28-5.66v.34l0,.23v.33l0,.11v.39l-.09.61v.28l0,.11v.28l-.1.7v.17A107.58,107.58,0,0,0,403,318a88.24,88.24,0,0,0,15.59-.37ZM424,296.83l1-3.66a61.83,61.83,0,0,1-12.83.2,77.75,77.75,0,0,1-31.88-10.07v.06l0,.05v.17l0,.06v.11l-.23,1v.12l0,.05V285l0,.06v.17l0,.06v.11l-.14.62v.05l0,.06v.22l0,.06v.17l0,.06v.17l0,0a81.84,81.84,0,0,0,32.4,10,66,66,0,0,0,12.17-.07ZM373.6,333.7v.38h0v1.58h0v1.65h0v.05a134.67,134.67,0,0,0,27,4.07,115.48,115.48,0,0,0,14.41-.2c0-1.23.1-2.41.16-3.56a108.18,108.18,0,0,1-14.41.23,130.43,130.43,0,0,1-27.24-4.21Zm.86,22.5.16,3.68a135.3,135.3,0,0,0,26.06,3.83,113.56,113.56,0,0,0,14.41-.2c0-1.2-.06-2.38-.08-3.53a109.77,109.77,0,0,1-14.17.2,129.79,129.79,0,0,1-26.38-4Zm1.19,26.31.09,1.78.09,1.9A134.68,134.68,0,0,0,401.74,390a112.2,112.2,0,0,0,14.44-.2v-.32h0v-1.38h0v-1.81a109,109,0,0,1-14.12.21,131.7,131.7,0,0,1-26.26-3.95Zm1.17,24.36.09,1.66.09,2a134.38,134.38,0,0,0,25.67,3.74,115.32,115.32,0,0,0,14.28-.19v-.24l-.09-3.27v0a111.27,111.27,0,0,1-14,.19A131.29,131.29,0,0,1,376.82,406.87Z"/><path class="cls-11" d="M439.72,236.9h0l-.1,0h0l-.13,0h0l-.25-.08h0l-.09,0-.06,0-.07,0-.08,0h-.05l-.1,0h0l-.12,0h0l-.13,0h0l-.1,0h0l-.09,0-.06,0-.06,0-.08,0h0l-.11,0h0l-.12,0h0l-.12,0h0l-.1,0,0,0-.08,0-.06,0-.06,0-.08,0h0l-.1,0h0l-.12,0h0l-.11,0h0l-.09,0h0l-.08,0-.06,0h-.05l-.08,0h0l-.1,0h0l-.11,0h0l-.11,0h0l-.09,0,0,0-.07,0h-.06l0,0-.08,0h0l-.09,0h0l-.11,0h0l-.1,0h0l-.08,0h0l-.06,0h-.11l-.08,0h0l-.1,0h0l-.1,0h0l-.09,0h0l-.07,0h0l-.05,0h-.1l-.08,0h0l-.09,0h0l-.1,0h0l-.09,0h0l-.07,0h-.1l-.05,0h0l-.08,0h0l-.09,0h0l-.09,0h0l-.08,0H433l0,0h-.17l-.09,0c-16.58-3.79-21.86.5-36,2.91h-.41l0,0h0l-.05,0h-.23l-.05,0h0l-.06,0h0l-.07,0h0l-.06,0h0l-.06,0h0l-.05,0h-.08l-.05,0h0l-.07,0h0l-.08,0h0l-.08,0h0l-.08,0h0l-.06,0,0,0-.06,0,0,0h0l-.07,0h0l-.09,0h0l-.1,0h0l-.1,0h0l-.09,0h0l-.07,0-.05,0-.06,0-.07,0,0,0-.09,0h0l-.11,0h0l-.11,0h0l-.1,0h0l-.09,0-.05,0-.07,0-.07,0-.06,0-.09,0h0l-.12,0h0l-.13,0h0l-.12.05h0l-.1,0-.05,0-.09,0-.06,0-.07,0-.09,0-.05,0-.11,0h0l-.13,0h0l-.14.05h0l-.13.05h0l-.11,0-.06,0-.09,0h0c-.32,1.25-.66,2.58-1,4a25.08,25.08,0,0,0,49.63-5Z"/><path class="cls-12" d="M402.93,417.81l-3-.38-15,3.07c-1.46.29-.53,5.09,6.5,6S402.93,417.81,402.93,417.81Z"/><path class="cls-22" d="M272.09,273.84s-23.3-40.15-32.74-55.06c-4.14-6.54-10.43-4.69-6.55,4,2.14,4.8,9.65,16.69,9.65,16.69-10.54,1-14,13.8-11.17,19,1.4,2.57,9.95,9.89,12,11.22s10.84,12.61,10.84,12.61Z"/><path class="cls-12" d="M254.84,244.41c-2.42-4.08-4.86-8.19-7.16-12l-2.45.27a10.08,10.08,0,0,1-8.58-2.72c2.76,4.74,5.8,9.55,5.8,9.55a12.48,12.48,0,0,0-4.44,1.27c2.44,1.28,7,2.73,14.45,3.6A10.77,10.77,0,0,0,254.84,244.41Z"/><path class="cls-12" d="M258.47,250.55c-1.65-2.8-3.36-5.69-5.07-8.56-3.51-.87-7.63-1.79-11.6-2.42-10,1.48-13.31,13.83-10.52,18.92.86,1.59,4.46,5,7.57,7.67C247.43,263.74,254.39,256.09,258.47,250.55Z"/><path class="cls-22" d="M233.37,247.21c-4.15,2.35-7,4.63-4.31,10.14s8.62,5,8.52,3-5-9.55-5-9.55S239,246.59,233.37,247.21Z"/><path class="cls-22" d="M236.84,243.74c-6.61-1.3-6.79,3.75-3.75,9.92s7.68,6.68,9.46,4-5.35-10.09-5.35-10.09S243.09,243,236.84,243.74Z"/><path class="cls-22" d="M236.57,248.39c3,6.17,7.33,6.32,9.11,3.59s-5.36-10.09-5.36-10.09,2-1.87,1.62-3.1c-1-2.94-7.58-3.14-7.83,2.35C234,242.91,235.08,245.36,236.57,248.39Z"/><path class="cls-22" d="M265.32,265.44c4.29-11.25-.17-27.32-5-27s-20.27-1.16-20.8,3,16,6.78,16,6.78-11.25,13.22-4.28,17S265.5,269.19,265.32,265.44Z"/><path class="cls-15" d="M310.49,328.53c-1.24-.48-29.86-46-37.45-62.16-.83-1.76-1.31-2.77-1.36-2.84-7-9.52-28.57,15.19-28.25,15.67s28.11,69.95,48.37,99c9.72,13.93,29.86,20.59,39.45,7.1C350,359,401.45,286,368.54,258.3c-5-4.22-27.07-1.18-30.22,6.33S311.86,329.06,310.49,328.53Z"/><path class="cls-22" d="M427.11,414.3l-6.79-1.14s-7.79,1.37-10.66,2-11.94,2.69-13.34,3.45-5.91,6.23-5.91,6.23L403,429.28l25.64,2.11Z"/><path class="cls-7" d="M386.42,264.45a.88.88,0,0,1,1.23,1.26l-26,25.48L375,349.12a.88.88,0,0,1-1.72.39l-13.48-58.4a.92.92,0,0,1,.24-.83l12.18-11.94-7.92-8.94a.9.9,0,0,1-.19-1l11.41-25.79a.87.87,0,0,1,1.16-.45.88.88,0,0,1,.46,1.16L366,268.61l7.52,8.49Z"/><path class="cls-22" d="M414.86,194.18h0a18.06,18.06,0,0,0-18.1,17.91l-.14,26.36a18,18,0,0,0,17.91,18.1h0a18.06,18.06,0,0,0,18.1-17.91l.14-26.36A18.06,18.06,0,0,0,414.86,194.18Z"/><path class="cls-12" d="M396.72,218.74l-.1,19.71a18.09,18.09,0,0,0,.56,4.56l35.51-16,.06-10.31Z"/><path class="cls-12" d="M373.75,172.11A11.77,11.77,0,1,1,362,183.91,11.78,11.78,0,0,1,373.75,172.11Z"/><path class="cls-12" d="M456.14,172l.86.16h0a11.78,11.78,0,1,1-9.86,2.21c-.36,3.47.12,7.77,4.55,8.28l0-6.79C451.68,173.15,454.26,171.93,456.14,172Z"/><path class="cls-22" d="M411.22,112.51h0a40.44,40.44,0,0,1,40.41,40.21l.09,36.63a40.43,40.43,0,0,1-40.21,40.4h0a40.41,40.41,0,0,1-40.4-40.21L371,152.92A40.41,40.41,0,0,1,411.22,112.51Z"/><path class="cls-23" d="M371.07,173.13,371,152.92a40.14,40.14,0,0,1,12.09-28.81c13.42-3,30.05-4.23,31.48-4.37,2.34-.24,23.18,5.85,23.18,5.85L429.46,143s-21.82,2-26.11,2.8c-13.38,2.62-24.67,21.76-31.61,30.09C371.74,175.93,371.48,174.89,371.07,173.13Z"/><path class="cls-15" d="M486.86,257c13.64,12.63,26.34,119.76,29.49,149.31,1.17,11,.23,28-25.29,28H419.88a27,27,0,0,0,0-22.15s52.45-10.31,54.33-10.54,5-3,4-6.32c-9.73-31.84-28.54-93.06-18.26-118.19C466.46,261.15,474.28,251.64,486.86,257Z"/><path class="cls-2" d="M236.26,424.8H374.6a9.5,9.5,0,0,1,9.5,9.5v0a9.51,9.51,0,0,1-9.51,9.51H236.26a9.51,9.51,0,0,1-9.51-9.51v0a9.5,9.5,0,0,1,9.5-9.5Z"/><path class="cls-24" d="M374.17,424.8h62.31a9.5,9.5,0,0,1,9.5,9.5v0a9.51,9.51,0,0,1-9.51,9.51H374.17a9.51,9.51,0,0,1-9.51-9.51v0a9.5,9.5,0,0,1,9.5-9.5Z"/><path class="cls-21" d="M394,202.63a10.6,10.6,0,0,0,21.19-.34h0a1.82,1.82,0,0,0-1.86-1.8l-17.5.28a1.83,1.83,0,0,0-1.79,1.86Z"/><path class="cls-25" d="M398.07,210.81a10.6,10.6,0,0,0,12.26.55,6.59,6.59,0,0,0-6.12-3.81A6.71,6.71,0,0,0,398.07,210.81Z"/><path class="cls-11" d="M413.53,200.5l-16.44.27c-.23,1.82.64,3.64,1.87,4,1.5.47,13.39,0,14.22-1C413.58,203.34,413.61,201.88,413.53,200.5Z"/><path class="cls-12" d="M427.34,191.65a5.39,5.39,0,1,0,5.58,5.19A5.39,5.39,0,0,0,427.34,191.65Z"/><path class="cls-12" d="M383.86,193.19a5.38,5.38,0,1,0,5.58,5.19A5.39,5.39,0,0,0,383.86,193.19Z"/><path class="cls-21" d="M379.75,174.35a1.51,1.51,0,0,1-2-.56,1.49,1.49,0,0,1,.55-2c3.75-2.21,8.9-2.72,12.81-.66a1.5,1.5,0,0,1-1.39,2.65C386.53,172.08,382.74,172.7,379.75,174.35Z"/><path class="cls-21" d="M429.1,171.6c-3.17-1.3-7-1.5-9.94.5a1.5,1.5,0,0,1-1.68-2.48c3.66-2.48,8.83-2.54,12.8-.77a1.5,1.5,0,0,1-1.18,2.75Z"/><path class="cls-21" d="M384.33,177h0a3.47,3.47,0,0,0-2.2.93,1.41,1.41,0,0,1-1-.67.56.56,0,1,0-1,.57,2.46,2.46,0,0,0,1.2,1l0,0a2.57,2.57,0,0,1-1.51-.82.58.58,0,0,0-.8,0,.56.56,0,0,0,0,.79,3.66,3.66,0,0,0,1.71,1.06h0a3.62,3.62,0,0,1-1.72-.45.56.56,0,0,0-.55,1,4.67,4.67,0,0,0,1.78.57l.79.06.24,4.26a3.54,3.54,0,0,0,3.73,3.34h0a3.55,3.55,0,0,0,3.33-3.73l-.26-4.6A3.54,3.54,0,0,0,384.33,177Z"/><path class="cls-21" d="M424.83,174.74h0a3.52,3.52,0,0,1,2.29.69,1.45,1.45,0,0,0,.91-.78.57.57,0,0,1,.75-.28.56.56,0,0,1,.28.74,2.43,2.43,0,0,1-1.08,1.15l0,0a2.57,2.57,0,0,0,1.41-1,.57.57,0,0,1,.79-.12.56.56,0,0,1,.13.78,3.64,3.64,0,0,1-1.6,1.24h0a3.53,3.53,0,0,0,1.66-.63.56.56,0,1,1,.65.91,4.47,4.47,0,0,1-1.7.76l-.78.16.24,4.26a3.55,3.55,0,0,1-3.34,3.72h0a3.55,3.55,0,0,1-3.73-3.33l-.25-4.6A3.55,3.55,0,0,1,424.83,174.74Z"/><path class="cls-26" d="M402.61,188.37s-3.38,3-3.49,4.92,1.68,2.89,3.41,2.76S404.46,186.48,402.61,188.37Z"/><path class="cls-21" d="M458,172.32c-6.75,0-6.29,9-6.29,13.53-7.36,0-6.21-9.75-6.21-14.3,0,0-17.12-2.84-17.36-31.82,0,0-28.08,3.45-45.07-1,0,0-2,21.38-11.61,32.94v5.46c0,2.63-2.45,5.56-4.46,5.56v-6s-7.53,13.8-13,13.8c0,0-15.92-23.07-18.34-37.22S373.5,90.2,409.3,90.2s46.46,15.78,38,32.16c0,0,8.09,1.41,11.53,8.89S457,150.87,462.69,163C462.69,163,458.06,171.9,458,172.32Z"/><path class="cls-21" d="M434.79,139.15s12.59-20.61.84-28.17-47-7.55-62.33,11.76-36.51,51.2-36.09,68.41,22.25,32.74,13.85,47.43-20.57,42,.42,60.43,13.85,1.89,13.85,1.89,25,9.24,38.82.84,3.36-25.39-10.49-31.9c0,0,6.72.53,6.61-3.56s-18.67-2.1-18-19.94c.27-7.8,1.37-14.36,1.8-20.3,1.52-20.73-12.21-25-11.21-38.45,1.25-16.86,11.68-40,31-49.74C430.91,124.21,434.79,139.15,434.79,139.15Z"/><path class="cls-7" d="M420,413a.86.86,0,0,1-1-.69.88.88,0,0,1,.7-1c.14,0,52.49-10.31,54.38-10.55a1.94,1.94,0,0,0,.33-.07,4.64,4.64,0,0,0,2.16-1.59,3.88,3.88,0,0,0,.89-2.9,3.56,3.56,0,0,0-.14-.63l-.17-.58c-9.81-32.09-28.4-92.92-18.05-118.19a.88.88,0,0,1,1.63.67c-10.11,24.68,8.36,85.12,18.1,117l.18.58a5,5,0,0,1,.2.93,5.6,5.6,0,0,1-1.25,4.2,6.55,6.55,0,0,1-3,2.19,4,4,0,0,1-.63.14C472.45,402.72,420.19,413,420,413Z"/><path class="cls-7" d="M465.5,347.28a.88.88,0,1,1-1.59.77c0-.05-8-16.46-11.56-29.65a.89.89,0,0,1,.63-1.08.87.87,0,0,1,1.08.62C457.56,331,465.48,347.24,465.5,347.28Z"/><path class="cls-7" d="M474.49,402.44a.88.88,0,0,1-.59-1.66s6.05-2.16,15.77-.24a.89.89,0,1,1-.34,1.74C480.08,400.45,474.51,402.44,474.49,402.44Z"/><path class="cls-7" d="M477.23,401.23a.88.88,0,0,1-1.08-1.4s5.09-3.92,14.92-5.1a.88.88,0,1,1,.21,1.75C481.93,397.61,477.24,401.22,477.23,401.23Z"/><path class="cls-7" d="M451.1,241.15a.89.89,0,0,1,1.77,0l.44,31.93a.89.89,0,0,1-.41.75l-11.16,7.08,3.78,9.65a.86.86,0,0,1,0,.67l-29.69,69.12a.89.89,0,0,1-1.16.46.87.87,0,0,1-.46-1.16l29.54-68.79-3.89-9.94a.13.13,0,0,1,0-.08l-7.47-19a.89.89,0,1,1,1.65-.65l7.08,18.09,10.46-6.64Z"/><path class="cls-8" d="M340.48,138.57a104.07,104.07,0,0,1,13.23-17.52c43.61,4.73,58.58-17.82,63.51-30.57,2.58.19,5,.48,7.25.86C409.94,140.62,362.62,141.2,340.48,138.57Z"/><path class="cls-8" d="M441,126.11a.88.88,0,0,1-1,.69.9.9,0,0,1-.69-1,18.47,18.47,0,0,0,.18-7.92,9.49,9.49,0,0,0-4.26-6.1,22.09,22.09,0,0,0-5.2-2.36,43,43,0,0,0-7-1.58.88.88,0,0,1,.25-1.75,45.74,45.74,0,0,1,7.3,1.65,24.49,24.49,0,0,1,5.62,2.55,11.31,11.31,0,0,1,5,7.19,20.54,20.54,0,0,1-.18,8.68Zm-88.47,24.63a.88.88,0,0,1,1.5.92,156.73,156.73,0,0,0-12.06,23.07c-2.49,6.2-3.95,11.85-3.84,16.4a.88.88,0,1,1-1.76,0c-.12-4.81,1.39-10.69,4-17.1a158.35,158.35,0,0,1,12.2-23.33Zm30.62,95.63a.88.88,0,1,1-1.76-.06c.17-4.86.65-9.21,1.1-13.23.27-2.48.54-4.83.7-7.1.1-1.37.14-2.66.11-3.86s-.11-2.36-.24-3.47a.88.88,0,1,1,1.75-.21,34.13,34.13,0,0,1,.25,3.64c0,1.29,0,2.63-.1,4-.17,2.29-.44,4.66-.71,7.17-.45,4-.93,8.34-1.1,13.1Zm17.18-105.48a.88.88,0,1,1-1-1.49q1-.63,2-1.23c.68-.39,1.37-.76,2.06-1.11,8.61-4.34,14.29-5.59,18.15-4.88,4.08.76,6.12,3.57,7.38,7.26a.88.88,0,0,1-1.67.57c-1.07-3.12-2.75-5.49-6-6.09-3.49-.65-8.8.57-17,4.72-.68.34-1.35.7-2,1.06S400.94,140.47,400.29,140.89Z"/><path class="cls-3" d="M596.05,376.78h4.86a2.13,2.13,0,0,1,2.13,2.13v4.86a2.13,2.13,0,0,1-2.13,2.13h-4.86a2.12,2.12,0,0,1-2.12-2.12V378.9A2.12,2.12,0,0,1,596.05,376.78Z"/><path class="cls-3" d="M579.2,376.78h4.86a2.13,2.13,0,0,1,2.13,2.13v4.86a2.13,2.13,0,0,1-2.13,2.13H579.2a2.12,2.12,0,0,1-2.12-2.12V378.9A2.12,2.12,0,0,1,579.2,376.78Z"/><rect class="cls-3" x="560.21" y="376.78" width="9.12" height="9.11" rx="2.13"/><path class="cls-3" d="M545.48,376.78h4.86a2.13,2.13,0,0,1,2.13,2.13v4.86a2.13,2.13,0,0,1-2.13,2.13h-4.86a2.12,2.12,0,0,1-2.12-2.12V378.9A2.12,2.12,0,0,1,545.48,376.78Z"/><path class="cls-3" d="M528.62,376.78h4.86a2.13,2.13,0,0,1,2.13,2.13v4.86a2.13,2.13,0,0,1-2.13,2.13h-4.86a2.13,2.13,0,0,1-2.13-2.13V378.9a2.12,2.12,0,0,1,2.12-2.12Z"/><path class="cls-3" d="M578.59,358.4h4.86a2.12,2.12,0,0,1,2.12,2.12v4.86a2.13,2.13,0,0,1-2.13,2.13h-4.86a2.13,2.13,0,0,1-2.13-2.13v-4.86A2.13,2.13,0,0,1,578.59,358.4Z"/><rect class="cls-3" x="559.6" y="358.4" width="9.11" height="9.11" rx="2.13"/><path class="cls-3" d="M544.87,358.4h4.86a2.13,2.13,0,0,1,2.13,2.13v4.86a2.13,2.13,0,0,1-2.13,2.13h-4.86a2.12,2.12,0,0,1-2.12-2.12v-4.86A2.13,2.13,0,0,1,544.87,358.4Z"/><rect class="cls-3" x="560.21" y="396.52" width="9.11" height="9.11" rx="2.13"/><path class="cls-3" d="M545.48,396.52h4.86a2.13,2.13,0,0,1,2.13,2.13v4.86a2.13,2.13,0,0,1-2.13,2.13h-4.86a2.12,2.12,0,0,1-2.12-2.12v-4.86A2.12,2.12,0,0,1,545.48,396.52Z"/><path class="cls-11" d="M516.61,212.37a1.32,1.32,0,0,1,2.64,0v5.95a1.32,1.32,0,0,1-2.64,0v-5.95Zm-9,4.83a1.32,1.32,0,1,1,1.87-1.87l4.2,4.2a1.32,1.32,0,1,1-1.87,1.87l-4.2-4.2Zm-3,9.78a1.32,1.32,0,0,1,0-2.64h5.95a1.32,1.32,0,1,1,0,2.64Zm4.83,9a1.33,1.33,0,0,1-1.87,0,1.32,1.32,0,0,1,0-1.87l4.2-4.2a1.32,1.32,0,1,1,1.87,1.86l-4.2,4.21Zm9.78,2.95a1.32,1.32,0,1,1-2.64,0V233a1.32,1.32,0,0,1,2.64,0v5.94Zm9-4.82a1.32,1.32,0,1,1-1.87,1.87l-4.2-4.21a1.32,1.32,0,0,1,1.86-1.86l4.21,4.2Zm3-9.78a1.32,1.32,0,0,1,0,2.64h-6a1.32,1.32,0,1,1,0-2.64Zm-4.83-9a1.32,1.32,0,0,1,1.87,0,1.33,1.33,0,0,1,0,1.87l-4.21,4.2a1.32,1.32,0,0,1-1.86-1.87Z"/><path class="cls-11" d="M525.9,159v2.14h2.15a1.63,1.63,0,0,1,1.62,1.63h0a1.63,1.63,0,0,1-1.62,1.62H525.9v2.15a1.63,1.63,0,0,1-1.62,1.62h0a1.63,1.63,0,0,1-1.63-1.62v-2.15H520.5a1.63,1.63,0,0,1-1.62-1.62h0a1.63,1.63,0,0,1,1.62-1.63h2.15V159a1.63,1.63,0,0,1,1.63-1.63h0A1.63,1.63,0,0,1,525.9,159Z"/><path class="cls-11" d="M332.34,96.12v2.14h2.14a1.63,1.63,0,0,1,1.63,1.63h0a1.64,1.64,0,0,1-1.63,1.63h-2.14v2.14a1.64,1.64,0,0,1-1.63,1.63h0a1.63,1.63,0,0,1-1.62-1.63v-2.14h-2.15a1.63,1.63,0,0,1-1.62-1.63h0a1.63,1.63,0,0,1,1.62-1.63h2.15V96.12a1.63,1.63,0,0,1,1.62-1.63h0A1.63,1.63,0,0,1,332.34,96.12Z"/><path class="cls-11" d="M172,156.32v2.14h2.15a1.63,1.63,0,0,1,1.62,1.63h0a1.63,1.63,0,0,1-1.62,1.63H172v2.14a1.63,1.63,0,0,1-1.62,1.63h0a1.64,1.64,0,0,1-1.63-1.63v-2.14h-2.15a1.63,1.63,0,0,1-1.62-1.63h0a1.63,1.63,0,0,1,1.62-1.63h2.15v-2.14a1.63,1.63,0,0,1,1.63-1.63h0A1.63,1.63,0,0,1,172,156.32Z"/><path class="cls-11" d="M197.37,117.76a1.32,1.32,0,1,1,2.64,0v5.94a1.32,1.32,0,0,1-2.64,0v-5.94Zm-9,4.82a1.32,1.32,0,0,1,0-1.87,1.33,1.33,0,0,1,1.87,0l4.2,4.21a1.32,1.32,0,0,1,0,1.87,1.33,1.33,0,0,1-1.87,0l-4.2-4.21Zm-3,9.79a1.33,1.33,0,0,1,0-2.65h5.95a1.33,1.33,0,0,1,0,2.65Zm4.83,9a1.32,1.32,0,0,1-1.87-1.87l4.2-4.2a1.32,1.32,0,0,1,1.87,1.87l-4.2,4.2Zm9.78,3a1.32,1.32,0,0,1-2.64,0v-5.94a1.32,1.32,0,1,1,2.64,0v5.94Zm9-4.83a1.33,1.33,0,0,1,0,1.87,1.32,1.32,0,0,1-1.87,0l-4.21-4.2a1.33,1.33,0,0,1,0-1.87,1.32,1.32,0,0,1,1.87,0l4.21,4.2Zm2.95-9.78a1.33,1.33,0,0,1,0,2.65H206a1.33,1.33,0,0,1,0-2.65Zm-4.82-9a1.32,1.32,0,0,1,1.87,1.87l-4.21,4.21a1.32,1.32,0,0,1-1.87-1.87Z"/><path class="cls-11" d="M303.34,246.5a1.33,1.33,0,0,1,2.65,0v5.95a1.33,1.33,0,0,1-2.65,0V246.5Zm-9,4.83a1.32,1.32,0,0,1,1.87-1.87l4.21,4.21a1.32,1.32,0,0,1-1.87,1.86l-4.21-4.2Zm-2.95,9.78a1.32,1.32,0,0,1,0-2.64h5.94a1.32,1.32,0,1,1,0,2.64Zm4.82,9a1.32,1.32,0,0,1-1.87,0,1.33,1.33,0,0,1,0-1.87l4.21-4.2a1.32,1.32,0,0,1,1.87,0,1.33,1.33,0,0,1,0,1.87l-4.21,4.2Zm9.79,3a1.33,1.33,0,0,1-2.65,0v-5.95a1.33,1.33,0,0,1,2.65,0v5.95Zm9-4.83a1.32,1.32,0,0,1-1.87,1.87l-4.2-4.2a1.32,1.32,0,0,1,1.87-1.87l4.2,4.2Zm3-9.78a1.32,1.32,0,0,1,0,2.64H312a1.32,1.32,0,1,1,0-2.64Zm-4.83-9a1.33,1.33,0,0,1,1.87,0,1.32,1.32,0,0,1,0,1.87l-4.2,4.2a1.32,1.32,0,0,1-1.87-1.86Z"/><path class="cls-11" d="M583.58,41.2a1.32,1.32,0,0,1,2.64,0v5.94a1.32,1.32,0,1,1-2.64,0V41.2Zm-9,4.83a1.32,1.32,0,0,1,1.87-1.87l4.2,4.2a1.32,1.32,0,0,1-1.87,1.87l-4.2-4.2Zm-3,9.78a1.32,1.32,0,0,1,0-2.64h5.95a1.32,1.32,0,1,1,0,2.64Zm4.83,9A1.32,1.32,0,0,1,574.57,63l4.2-4.21a1.33,1.33,0,0,1,1.87,0,1.32,1.32,0,0,1,0,1.87l-4.2,4.2Zm9.78,3a1.32,1.32,0,0,1-2.64,0V61.83a1.32,1.32,0,0,1,2.64,0v5.94Zm9-4.82a1.32,1.32,0,1,1-1.87,1.86l-4.21-4.2A1.32,1.32,0,0,1,591,58.74L595.23,63Zm2.95-9.78a1.32,1.32,0,1,1,0,2.64h-5.94a1.32,1.32,0,0,1,0-2.64Zm-4.82-9a1.32,1.32,0,0,1,1.87,0,1.33,1.33,0,0,1,0,1.87L591,50.23a1.32,1.32,0,0,1-1.87,0,1.33,1.33,0,0,1,0-1.87Z"/><rect class="cls-3" x="151.62" y="175.06" width="9.11" height="9.11" rx="2.13"/><path class="cls-3" d="M136.89,175.06h4.86a2.13,2.13,0,0,1,2.13,2.13v4.86a2.13,2.13,0,0,1-2.13,2.13h-4.86a2.12,2.12,0,0,1-2.12-2.12v-4.86A2.13,2.13,0,0,1,136.89,175.06Z"/><rect class="cls-3" x="117.9" y="175.06" width="9.11" height="9.11" rx="2.13"/><rect class="cls-3" x="101.04" y="175.06" width="9.11" height="9.11" rx="2.13"/><rect class="cls-3" x="84.18" y="175.06" width="9.11" height="9.11" rx="2.13"/><rect class="cls-3" x="67.33" y="175.06" width="9.11" height="9.11" rx="2.13"/><path class="cls-3" d="M119.42,156.68h4.86a2.12,2.12,0,0,1,2.12,2.12v4.86a2.13,2.13,0,0,1-2.13,2.13h-4.86a2.13,2.13,0,0,1-2.13-2.13v-4.86A2.13,2.13,0,0,1,119.42,156.68Z"/><rect class="cls-3" x="100.43" y="156.68" width="9.11" height="9.11" rx="2.13"/><path class="cls-3" d="M85.7,156.68h4.86a2.13,2.13,0,0,1,2.13,2.13v4.86a2.13,2.13,0,0,1-2.13,2.13H85.7a2.12,2.12,0,0,1-2.12-2.12v-4.86A2.13,2.13,0,0,1,85.7,156.68Z"/><rect class="cls-3" x="101.04" y="194.81" width="9.11" height="9.11" rx="2.13"/><rect class="cls-3" x="84.18" y="194.81" width="9.11" height="9.11" rx="2.13"/><path class="cls-6" d="M573.91,206.2Zm-5.74-21.87a11.07,11.07,0,1,0,3.23,7.81,11,11,0,0,0-3.23-7.81Zm-2.39-11a19.32,19.32,0,0,1,4.33,1.84,19.71,19.71,0,0,1,3.8,2.86.67.67,0,0,0,.81.1l5.13-3,0,0a1.28,1.28,0,0,1,1.71.48l0,0,3.62,6.26a1.25,1.25,0,0,1,.12,1,1.28,1.28,0,0,1-.59.78l0,0-5.09,2.94a.67.67,0,0,0-.32.75h0a19.19,19.19,0,0,1,.43,2.33,20.3,20.3,0,0,1,0,4.76,19.72,19.72,0,0,1-.43,2.34.68.68,0,0,0,.36.77l5.09,2.94h0a1.26,1.26,0,0,1,.59.77,1.27,1.27,0,0,1-.12,1l-3.64,6.29h0a1.26,1.26,0,0,1-.77.59,1.28,1.28,0,0,1-1-.12l0,0-5.1-3a.69.69,0,0,0-.81.1,19.39,19.39,0,0,1-8.16,4.72.67.67,0,0,0-.49.65v5.92a1.28,1.28,0,0,1-.38.9,1.25,1.25,0,0,1-.89.37h-7.27a1.26,1.26,0,0,1-1.27-1.27v-5.92a.68.68,0,0,0-.53-.66,19.79,19.79,0,0,1-4.33-1.84,20.07,20.07,0,0,1-3.8-2.87.68.68,0,0,0-.84-.08l-5.1,2.95a1.29,1.29,0,0,1-1.74-.47l0,0-3.61-6.25h0a1.28,1.28,0,0,1-.13-1,1.26,1.26,0,0,1,.59-.77l5.13-3a.68.68,0,0,0,.32-.75h0a22,22,0,0,1-.43-2.34,20.3,20.3,0,0,1,0-4.76,21.34,21.34,0,0,1,.43-2.33.67.67,0,0,0-.35-.77l-5.1-2.94a1.31,1.31,0,0,1-.59-.78,1.26,1.26,0,0,1,.13-1l0,0,3.61-6.26h0a1.32,1.32,0,0,1,.77-.59,1.27,1.27,0,0,1,1,.13h0l5.13,3a.68.68,0,0,0,.83-.11,19.4,19.4,0,0,1,8.14-4.7.69.69,0,0,0,.5-.66v-5.92a1.26,1.26,0,0,1,1.27-1.27H564a1.25,1.25,0,0,1,.89.37,1.28,1.28,0,0,1,.38.9v5.92A.69.69,0,0,0,565.78,173.38Z"/><path class="cls-11" d="M548,61.69H480.85a10.21,10.21,0,0,0-10.18,10.18v71.82a1.12,1.12,0,0,0,.7,1.05,1.1,1.1,0,0,0,1.24-.25L490,127.14h58A10.2,10.2,0,0,0,558.14,117V71.87A10.21,10.21,0,0,0,548,61.69Z"/><path class="cls-6" d="M552.46,67.07H485.35a9.34,9.34,0,0,0-9.3,9.3v71.82a.33.33,0,0,0,0,.14.27.27,0,0,0,.12.09.24.24,0,0,0,.14,0h0a.41.41,0,0,0,.11-.07L493.83,131a.85.85,0,0,1,.63-.26h58a9.34,9.34,0,0,0,9.3-9.3V76.37a9.32,9.32,0,0,0-9.3-9.3ZM485.35,65.3h67.11a11.1,11.1,0,0,1,11.07,11.07v45.09a11.1,11.1,0,0,1-11.07,11.07H494.82l-17.09,17.09a2.07,2.07,0,0,1-1,.54h-.05a2,2,0,0,1-1.17-.12,2,2,0,0,1-1.25-1.86V76.37A11.1,11.1,0,0,1,485.35,65.3Z"/><path class="cls-22" d="M496.88,80.87h0a11.62,11.62,0,0,1,16.41,0L514.41,82l1.11-1.11a11.62,11.62,0,0,1,16.41,0h0a11.62,11.62,0,0,1,0,16.41l-1.11,1.11L514.41,114.8,498,98.39l-1.12-1.11A11.64,11.64,0,0,1,496.88,80.87Z"/><path class="cls-21" d="M692.35,434.3H57.66a7.59,7.59,0,0,0-7.57,7.57h0a7.58,7.58,0,0,0,7.57,7.56H83.2a4.22,4.22,0,0,1,4.2,4.21h0a4.21,4.21,0,0,1-4.2,4.2H73.85a5.28,5.28,0,0,0-5.26,5.26h0a5.28,5.28,0,0,0,5.26,5.26H675.31a5.27,5.27,0,0,0,5.26-5.26h0a5.28,5.28,0,0,0-5.26-5.26H668a4.21,4.21,0,0,1-4.21-4.2h0a4.22,4.22,0,0,1,4.21-4.21h24.39a7.58,7.58,0,0,0,7.56-7.56h0a7.59,7.59,0,0,0-7.56-7.57Zm-4,34.07a5.06,5.06,0,0,1-5-5.05v-.42a5.07,5.07,0,0,1,5-5h0a5.07,5.07,0,0,1,5.05,5v.42a5.06,5.06,0,0,1-5.05,5.05Z"/><path class="cls-8" d="M185.73,300.46H344.16a4.78,4.78,0,0,1,4.62,4.15l11.27,99.11a3.63,3.63,0,0,1-3.67,4.15H197.94a4.78,4.78,0,0,1-4.62-4.15l-11.27-99.11A3.64,3.64,0,0,1,185.73,300.46Z"/><path class="cls-21" d="M172.23,300.46H337.94a4.79,4.79,0,0,1,4.62,4.15l11.27,99.11a3.64,3.64,0,0,1-3.68,4.15H184.45a4.77,4.77,0,0,1-4.62-4.15l-11.27-99.11A3.64,3.64,0,0,1,172.23,300.46Z"/><path class="cls-21" d="M248.7,361.46h31.81a2.84,2.84,0,0,1,2.81,3.75L267,430.56a5.14,5.14,0,0,1-4.68,3.74H245.83a3.58,3.58,0,0,1-3.6-3.74l2.58-65.35A3.93,3.93,0,0,1,248.7,361.46Z"/><path class="cls-8" d="M243.9,361.46h31.81a2.84,2.84,0,0,1,2.81,3.75l-16.3,65.35a5.13,5.13,0,0,1-4.68,3.74H241a3.58,3.58,0,0,1-3.6-3.74L240,365.21A3.93,3.93,0,0,1,243.9,361.46Z"/><path class="cls-8" d="M215.72,440.42H300a6.14,6.14,0,0,0,6.12-6.12h0a6.14,6.14,0,0,0-6.12-6.11H215.72a6.13,6.13,0,0,0-6.12,6.11h0A6.13,6.13,0,0,0,215.72,440.42Z"/><path class="cls-21" d="M291,440.42h32.13a6.13,6.13,0,0,0,6.12-6.12h0a6.13,6.13,0,0,0-6.12-6.11H291a6.13,6.13,0,0,0-6.11,6.11h0A6.13,6.13,0,0,0,291,440.42Z"/></svg>