<svg id="OBJECTS" xmlns="http://www.w3.org/2000/svg" viewBox="0 0 750 500"><defs><style>.cls-1,.cls-14{fill:#d6d6f9;}.cls-1,.cls-11,.cls-12,.cls-16,.cls-17,.cls-18,.cls-2,.cls-21,.cls-22,.cls-3,.cls-4,.cls-5,.cls-6,.cls-7,.cls-8{fill-rule:evenodd;}.cls-10,.cls-2{fill:#484d9b;}.cls-13,.cls-3{fill:#fff;}.cls-19,.cls-4{fill:#9c9dcc;}.cls-5{fill:#de9396;}.cls-6{fill:#df6162;}.cls-7{fill:#1d135c;}.cls-8{fill:#100843;}.cls-17,.cls-9{fill:#606ce6;}.cls-11{fill:#cf4a60;}.cls-12{fill:#e7b7b9;}.cls-15{fill:#100c4c;}.cls-16{fill:#eaebf5;}.cls-18,.cls-23{fill:#edbd54;}.cls-20{fill:#fbfdff;}.cls-21{fill:#b64443;}.cls-22{fill:#282564;}</style></defs><title>notesContent</title><path class="cls-1" d="M141.13,30.78c-49.3,0-89.64,40.34-89.64,89.64h0c0,49.3,40.34,89.63,89.64,89.63h0a18,18,0,0,1,18,18h0a18,18,0,0,1-18,18H94.23A43.85,43.85,0,0,0,50.5,289.75h0a43.86,43.86,0,0,0,43.73,43.73A37.93,37.93,0,0,1,132,371.3h0a69.19,69.19,0,0,0,69,69h405a89.89,89.89,0,0,0,89.63-89.63h0A89.89,89.89,0,0,0,606.08,261h-8.67a18,18,0,0,1-18-18h0a18,18,0,0,1,18-18h58.36a43.86,43.86,0,0,0,43.73-43.73h0a43.85,43.85,0,0,0-43.64-43.72h-47a37.92,37.92,0,0,1-37.81-37.82h0a69.2,69.2,0,0,0-69-69Z"/><path class="cls-2" d="M495.63,81.16a27,27,0,1,1-7.89,19.07,26.91,26.91,0,0,1,7.89-19.07Zm19.07-4A23.1,23.1,0,1,0,531,83.89,23,23,0,0,0,514.7,77.13Z"/><path class="cls-2" d="M531,119.29a1.93,1.93,0,0,1,2.73-2.73l6.38,6.38a1.93,1.93,0,1,1-2.73,2.73Z"/><path class="cls-2" d="M537.67,128.66a3.86,3.86,0,0,1,5.46-5.46l29.44,29.44a3.86,3.86,0,1,1-5.46,5.46Z"/><path class="cls-3" d="M527.23,87.59a1.2,1.2,0,1,1,1.7-1.7,20.13,20.13,0,0,1,5.91,14.29h0a20.08,20.08,0,0,1-.79,5.59,1.2,1.2,0,1,1-2.31-.66,17.89,17.89,0,0,0,.69-4.93h0a17.76,17.76,0,0,0-5.22-12.59Zm2.4,22.2a1.2,1.2,0,1,1,2,1.3,21,21,0,0,1-1.27,1.75,17.4,17.4,0,0,1-1.45,1.62,1.2,1.2,0,1,1-1.7-1.7,18.23,18.23,0,0,0,1.28-1.42,16.93,16.93,0,0,0,1.12-1.55Zm-27.56,3a1.2,1.2,0,0,1,0,1.7,1.21,1.21,0,0,1-1.71,0,20.22,20.22,0,0,1-4.56-21.55,1.19,1.19,0,0,1,1.55-.69,1.21,1.21,0,0,1,.69,1.55,18.11,18.11,0,0,0-.89,3.14,17.77,17.77,0,0,0,4.92,15.85Zm-1.87-23a1.2,1.2,0,0,1-1.95-1.4c.32-.45.66-.88,1-1.29l.06-.06c.36-.42.71-.8,1-1.14a1.21,1.21,0,0,1,1.71,0,1.2,1.2,0,0,1,0,1.7c-.36.36-.67.69-.93,1l-.06.06C500.76,89,500.47,89.4,500.2,89.78Z"/><path class="cls-4" d="M520.51,108.29a1.17,1.17,0,0,0-.42,1.59,1.15,1.15,0,0,0,1.59.42,11.67,11.67,0,1,0-17.5-10.1,1.17,1.17,0,1,0,2.33,0,9.34,9.34,0,1,1,17.43,4.66A9.48,9.48,0,0,1,520.51,108.29Z"/><path class="cls-4" d="M608.43,310.45A46.62,46.62,0,1,1,590.57,314a46.51,46.51,0,0,1,17.86-3.54Zm17.18,5.18a45,45,0,0,0-58.71,58.7,44.87,44.87,0,0,0,41.53,27.74,44.94,44.94,0,0,0,17.18-86.44Z"/><path class="cls-5" d="M476.83,153.58s23.39-40.31,32.87-55.27c4.16-6.57,10.47-4.71,6.57,4-2.15,4.82-9.69,16.76-9.69,16.76,10.59,1,14.08,13.85,11.22,19.08-1.41,2.57-10,9.92-12.06,11.25s-10.88,12.67-10.88,12.67Z"/><path class="cls-6" d="M494.14,124c2.43-4.1,4.88-8.22,7.19-12.07l2.46.28a10.17,10.17,0,0,0,8.62-2.74c-2.78,4.76-5.83,9.59-5.83,9.59a12.33,12.33,0,0,1,4.46,1.28c-2.45,1.28-7,2.73-14.51,3.61A10.85,10.85,0,0,1,494.14,124Z"/><path class="cls-6" d="M490.5,130.21c1.66-2.82,3.38-5.72,5.09-8.6,3.52-.88,7.67-1.8,11.64-2.43,10.08,1.48,13.37,13.88,10.57,19-.87,1.59-4.48,5-7.6,7.69C501.59,143.44,494.6,135.76,490.5,130.21Z"/><path class="cls-5" d="M515.7,126.85c4.17,2.36,7,4.64,4.33,10.18s-8.66,5.07-8.56,3,5-9.59,5-9.59S510.09,126.23,515.7,126.85Z"/><path class="cls-5" d="M512.22,123.37c6.63-1.31,6.81,3.76,3.76,9.95s-7.71,6.71-9.5,4,5.38-10.13,5.38-10.13S505.94,122.67,512.22,123.37Z"/><path class="cls-5" d="M512.48,128c-3,6.2-7.35,6.35-9.14,3.61s5.38-10.13,5.38-10.13-2-1.88-1.63-3.11c1-3,7.62-3.16,7.87,2.36C515,122.53,514,125,512.48,128Z"/><path class="cls-5" d="M483.62,145.15c-4.3-11.3.18-27.43,5-27.07s20.35-1.17,20.89,3-16,6.81-16,6.81,11.3,13.26,4.3,17S483.44,148.91,483.62,145.15Z"/><path class="cls-7" d="M351.85,224.37s62.32-4.43,65.14-4.8,5-1.25,11.09-8.09S479,143.31,479,143.31c1.52-2.43,26.68,13.61,22.85,23-1.88,4.61-49.27,77.22-49.27,77.22s-9.22,16.36-24.26,22.76-50,23.69-50,23.69Z"/><path class="cls-2" d="M395.44,221.23l11.1-.82c13.89,7.5,29.29,22.27,15.94,48.43-2.58,1.17-5.43,2.48-8.39,3.86,20.77-31.93-5.32-46.43-18.65-51.47Zm14.95-1.12c13.44,6.49,30.84,20.75,14,47.89,1.41-.63,2.72-1.2,3.9-1.7a38.16,38.16,0,0,0,4.33-2.19c11.19-23.25-.58-37.3-13.14-45.16a9.33,9.33,0,0,1-2.47.62C416.48,219.63,414,219.83,410.39,220.11Z"/><path class="cls-7" d="M353.07,225.12C407,234.47,408,296.84,400,350.42c-1.72,26.54,1.33,67.16-1.6,78.47a15.5,15.5,0,0,1-2.28,4.11l-62.55,2H263.45a15.67,15.67,0,0,1-2.28-4.12c-2.93-11.3,3.14-69.74,1.41-96.28l-5-89.05L314,225.12Z"/><path class="cls-6" d="M372.94,162.27c.3,0,.59.09.88.15h0a12.06,12.06,0,1,1-10.06,2.43c-.3,3.55.26,8,4.8,8.4l-.13-6.95C368.39,163.49,371,162.19,372.94,162.27Z"/><path class="cls-6" d="M290.85,162.27c-.3,0-.59.09-.89.15h0A12.07,12.07,0,1,0,300,164.85c.31,3.55-.26,8-4.79,8.4l.13-6.95C295.4,163.49,292.78,162.19,290.85,162.27Z"/><polygon class="cls-8" points="379.51 133.44 375.58 169.37 367.38 135.52 379.51 133.44"/><path class="cls-4" d="M353.07,224.28a48.08,48.08,0,0,1,5.41-.38c5.36,18.79-5.16,32.58-25,32.58a26.71,26.71,0,0,1-26.65-26.65V227.7l7.11-2.58Z"/><rect class="cls-9" x="311.68" y="425.48" width="157.96" height="19.09" rx="9.54"/><rect class="cls-10" x="249.55" y="425.48" width="81.63" height="19.09" rx="9.54"/><path class="cls-5" d="M333.53,184.44h0A19.6,19.6,0,0,0,314,204v25.85a19.59,19.59,0,0,0,19.54,19.54h0a19.59,19.59,0,0,0,19.54-19.54V204A19.6,19.6,0,0,0,333.53,184.44Z"/><path class="cls-6" d="M314.06,202.31c-.05.55-.07,1.11-.07,1.67v25.85a19.4,19.4,0,0,0,1.24,6.84l37.84-16.92V205.23c-7-1.28-23.85-3-24.84-3.85C327.6,200.86,320.62,201.53,314.06,202.31Z"/><path class="cls-5" d="M375.57,142.69c0,.21,0,.43,0,.65v37.52a41.38,41.38,0,0,1-41.26,41.25h0a41.37,41.37,0,0,1-41.24-41.25V143.34a32.39,32.39,0,0,1,1.2-9.86,41.41,41.41,0,0,1,40-31.39h0A41.39,41.39,0,0,1,375.57,142.69Z"/><path class="cls-6" d="M375.57,142.69v.4l-25.14-10.22-10.74,6.27L325.8,135.3a3.91,3.91,0,0,1-3.85,1.83l-14.6-5.28,1.81-21.14a42.09,42.09,0,0,1,6.76-4.26l43.86,4.49A41.29,41.29,0,0,1,375.57,142.69Z"/><path class="cls-8" d="M329.3,183a10.67,10.67,0,0,0,21.33.84h0a1.85,1.85,0,0,0-1.77-1.92l-17.61-.69a1.85,1.85,0,0,0-1.92,1.77Z"/><path class="cls-11" d="M332.94,191.42a10.68,10.68,0,0,0,12.3,1.23,6.63,6.63,0,0,0-5.94-4.17A6.73,6.73,0,0,0,332.94,191.42Z"/><path class="cls-3" d="M349.08,181.91l-16.56-.66c-.33,1.83.44,3.71,1.66,4.16,1.48.55,13.47.71,14.35-.2C349,184.77,349.07,183.3,349.08,181.91Z"/><path class="cls-6" d="M317,173.78a5.43,5.43,0,1,1-5.32,5.53A5.42,5.42,0,0,1,317,173.78Z"/><path class="cls-6" d="M362.05,172.89a5.43,5.43,0,1,1-5.33,5.53A5.43,5.43,0,0,1,362.05,172.89Z"/><path class="cls-8" d="M364.32,155.11a1.47,1.47,0,0,0,1.32-2.62c-3.89-2-9.08-2.23-12.89,0a1.47,1.47,0,0,0,1.51,2.52C357.34,153.21,361.2,153.62,364.32,155.11Z"/><path class="cls-8" d="M355.43,167.14a3.82,3.82,0,0,1,7.63,0,1.47,1.47,0,0,0,2.94,0,6.76,6.76,0,0,0-13.51,0,1.47,1.47,0,0,0,2.94,0Z"/><path class="cls-12" d="M345.47,170.44c1,1.39,2.78,3.93,2.92,4.87.21,1.32-2.75,2.09-4.79,1.53-1.45-.4-1.22-3.64-.8-5.68C343.27,168.92,343.88,168.25,345.47,170.44Z"/><path class="cls-8" d="M325.92,155.11a1.46,1.46,0,0,0,1.31-2.62c-3.88-2-9.07-2.23-12.88,0a1.47,1.47,0,0,0,1.5,2.52C318.94,153.21,322.8,153.62,325.92,155.11Z"/><path class="cls-8" d="M317,167.14a3.82,3.82,0,0,1,1.12-2.7,3.84,3.84,0,0,1,5.4,0,3.85,3.85,0,0,1,1.11,2.7,1.47,1.47,0,1,0,2.94,0,6.76,6.76,0,0,0-13.51,0,1.47,1.47,0,1,0,2.94,0Z"/><path class="cls-8" d="M293.08,175.35s9.16-10.41,4.77-24.33c0,0,16-8.71,16-21.89,0,0,1.92,4.56,5.06,5.68s4.77-3.14,3.25-5.07c0,0,11.65,8.51,21.28,10.44s12.47-7.8,8.51-11.25c0,0,15.51,10.84,25.44,8.21s15.81-41.35-18.24-49.87-55.54.41-62.84,5.27-12,18-6.89,27a30,30,0,0,0-7.7,14.4c-1.62,8.51,4.77,29.83,4.77,29.83S293.08,164.4,293.08,175.35Z"/><path class="cls-7" d="M380.25,101.7l0,0C338.59,115.86,317.4,99.5,308,87.23a55.17,55.17,0,0,0-7.59,3c22.77,37.32,60,36.53,84.72,30.7A33.67,33.67,0,0,0,380.25,101.7Z"/><path class="cls-6" d="M307.1,294.84a36,36,0,0,0,4.74,5.73c1.77,1.61,17.68,7.28,17.68,7.28s-1.15,3.64-4.68,3.64h-9.15c-3,0-5.31,9.77-16.23,14.14-8.29,3.32-5-19.59-2.95-30.79Z"/><rect class="cls-13" x="310.96" y="239.89" width="33.85" height="68.48" rx="3.79"/><rect class="cls-14" x="310.96" y="247.35" width="33.85" height="1.32"/><rect class="cls-14" x="310.96" y="299.6" width="33.85" height="1.32"/><path class="cls-6" d="M310,259.37a5.39,5.39,0,0,1,1.51,3.82c.15,2.7-1.68,5.44-2.39,7.23l-2.64,9s-1.26,12.55-1.48,13c-.1.2.93,1.56,2.33,3.16l-10.54,1c.32-3.59.62-6,.62-6l-1.16-6.38s3.49-9.72,4.87-12.78S309.27,258.8,310,259.37Z"/><path class="cls-1" d="M327.89,263.22a5.66,5.66,0,1,0-5.66-5.66A5.67,5.67,0,0,0,327.89,263.22Z"/><path class="cls-5" d="M288.15,349.8s7.28-13.32,9.26-16.12A25.38,25.38,0,0,0,302.09,319c0-6.86-1.15-10.29,1.77-12.48a24.74,24.74,0,0,1,7-3.33l7.23.26c1.2.06,6.66,1.56,8,1.51a3.24,3.24,0,0,0,2.76-2c.2-.84.2-1.36-1.72-2.08a70.68,70.68,0,0,0-8.79-2.76c-1.77-.26-7.75-.62-9.1-.62a35.14,35.14,0,0,0-5,.88l4.73-2.24c.88-.41,7.75-.93,9.67-.62s7.85,3.59,11.86,1.25c0,0,.88-.7-.18-1.82s-11.7-5.85-13.06-6.37-3-.37-5.77-.16-5.61.31-6.91,1.09-3.54,2-3.54,2,3.9-7.39,4.42-7.91,8.48-3.9,9-4.05,6-1,7.48-2.24a5.44,5.44,0,0,0,1.93-3.8c0-.67-.21-1.14-3.07-.88s-6.19.57-8.48.83-7.59,2.71-10.24,3.75-4.89,5.14-7.8,10.34-7,16.33-8.84,20.6-.62,16.84-8,26.62S268,346.33,268,346.33Z"/><path class="cls-7" d="M257.57,245.57s-13.25,5-19.64,28.28-13.16,104.93-14.67,123,25,33.66,39.49,16.17,33.85-71.64,33.85-71.64a34.64,34.64,0,0,0-17-12.32l-7.05,8.55S299.61,240.75,257.57,245.57Z"/><path class="cls-2" d="M232.33,306.5q-.47,3.56-.91,7.25c24.93-3.4,40.53,4.47,45,7.17.47-2.28.93-4.74,1.39-7.31-7-3.62-22.67-9.76-45.5-7.11Zm-1.82,14.91c21.2-2.85,36.49,1.89,44.63,5.58-.64,2.85-1.22,5.23-1.67,7-6.88-3.4-21.85-8.7-43.78-5.31Q230.1,325,230.51,321.41Z"/><path class="cls-1" d="M315,245.57a1.88,1.88,0,1,0-1.88-1.88A1.88,1.88,0,0,0,315,245.57Z"/><path class="cls-4" d="M319.37,244.84a1.15,1.15,0,1,0-1.14-1.15A1.15,1.15,0,0,0,319.37,244.84Z"/><path class="cls-4" d="M315,245.08a1.39,1.39,0,1,0-1.39-1.39A1.38,1.38,0,0,0,315,245.08Z"/><path class="cls-1" d="M315,244.32a.63.63,0,1,0-.63-.63A.63.63,0,0,0,315,244.32Z"/><path class="cls-3" d="M315.6,243.59A.63.63,0,1,0,315,243,.62.62,0,0,0,315.6,243.59Z"/><path class="cls-1" d="M319.37,244.27a.58.58,0,1,0-.57-.58A.58.58,0,0,0,319.37,244.27Z"/><path class="cls-15" d="M260.07,416.65a.85.85,0,0,1-.67-.31.89.89,0,0,1,.09-1.25,23.17,23.17,0,0,0,2.58-2.65c13.53-16.35,31.66-65.76,33.54-70.95a34.33,34.33,0,0,0-15.73-11.42l-6.66,8.09a.89.89,0,0,1-1.1.22.88.88,0,0,1-.44-1c.08-.3,8.49-30.68,8.55-56.18a.88.88,0,0,1,.89-.88h0a.88.88,0,0,1,.88.89c0,20.31-5.33,43.65-7.59,52.74l4.49-5.45a.88.88,0,0,1,1-.28,35.25,35.25,0,0,1,17.49,12.67.89.89,0,0,1,.1.79c-.79,2.22-19.59,54.51-34,71.92a24.4,24.4,0,0,1-2.79,2.86A.86.86,0,0,1,260.07,416.65Z"/><path class="cls-15" d="M244.51,372.49a.85.85,0,0,1-.56-.21.89.89,0,0,1-.12-1.25l31.23-37.9a.89.89,0,1,1,1.37,1.13l-31.23,37.9A.88.88,0,0,1,244.51,372.49Z"/><path class="cls-15" d="M244.7,365a.91.91,0,0,1-.82-.53.89.89,0,0,1,.46-1.17c3-1.31,8.62-3.35,8.86-3.44a.89.89,0,0,1,1.14.54.88.88,0,0,1-.53,1.13c-.06,0-5.81,2.11-8.76,3.4A.84.84,0,0,1,244.7,365Z"/><path class="cls-15" d="M277.6,315.78a1,1,0,0,1-.3,0,.89.89,0,0,1-.53-1.14c.06-.17,6.21-17,6.75-18.82a.9.9,0,0,1,1.11-.59.88.88,0,0,1,.6,1.1c-.57,1.89-6.54,18.22-6.79,18.92A.9.9,0,0,1,277.6,315.78Z"/><path class="cls-15" d="M404,304.5a.9.9,0,0,1-.89-.86c-.72-24.4-5.94-43.47-15.52-56.68a.89.89,0,0,1,1.44-1c9.79,13.5,15.13,32.91,15.86,57.66a.89.89,0,0,1-.86.92Z"/><path class="cls-15" d="M417,220.46a.89.89,0,0,1-.07-1.78c.12,0,12-1,18.3-1.05a.89.89,0,0,1,0,1.78c-6.2.09-18.07,1-18.19,1Z"/><path class="cls-1" d="M510.82,300.66h-159a4.81,4.81,0,0,0-4.64,4.17l-11.31,99.49a3.66,3.66,0,0,0,3.69,4.17H498.56a4.81,4.81,0,0,0,4.64-4.17l11.31-99.49A3.65,3.65,0,0,0,510.82,300.66Z"/><path class="cls-3" d="M524.37,300.66H358a4.81,4.81,0,0,0-4.64,4.17l-11.31,99.49a3.66,3.66,0,0,0,3.69,4.17H512.11a4.81,4.81,0,0,0,4.64-4.17l11.31-99.49A3.65,3.65,0,0,0,524.37,300.66Z"/><path class="cls-4" d="M447.6,361.89H415.67a2.84,2.84,0,0,0-2.82,3.76l16.36,65.61a5.16,5.16,0,0,0,4.7,3.76h16.58a3.6,3.6,0,0,0,3.61-3.76l-2.59-65.61A4,4,0,0,0,447.6,361.89Z"/><path class="cls-16" d="M452.42,361.89H420.49a2.84,2.84,0,0,0-2.82,3.76L434,431.26a5.16,5.16,0,0,0,4.7,3.76H455.3a3.6,3.6,0,0,0,3.62-3.76l-2.59-65.61A4,4,0,0,0,452.42,361.89Z"/><path class="cls-3" d="M480.72,441.16H396.09A6.16,6.16,0,0,1,390,435h0a6.16,6.16,0,0,1,6.14-6.14h84.63a6.16,6.16,0,0,1,6.14,6.14h0A6.16,6.16,0,0,1,480.72,441.16Z"/><path class="cls-4" d="M405.19,441.16H372.93a6.16,6.16,0,0,1-6.14-6.14h0a6.16,6.16,0,0,1,6.14-6.14h32.26a6.16,6.16,0,0,1,6.14,6.14h0A6.16,6.16,0,0,1,405.19,441.16Z"/><path class="cls-8" d="M56.42,435H693.58a7.63,7.63,0,0,1,7.6,7.6h0a7.62,7.62,0,0,1-7.6,7.6H667.94a4.23,4.23,0,0,0-4.22,4.22h0a4.23,4.23,0,0,0,4.22,4.22h9.38a5.3,5.3,0,0,1,5.28,5.28h0a5.3,5.3,0,0,1-5.28,5.28H73.52a5.3,5.3,0,0,1-5.28-5.28h0a5.3,5.3,0,0,1,5.28-5.28h7.39a4.23,4.23,0,0,0,4.22-4.22h0a4.23,4.23,0,0,0-4.22-4.22H56.42a7.62,7.62,0,0,1-7.6-7.6h0a7.63,7.63,0,0,1,7.6-7.6Zm4,34.2a5.08,5.08,0,0,0,5.07-5.07v-.42a5.08,5.08,0,0,0-5.07-5.07h0a5.08,5.08,0,0,0-5.07,5.07v.42a5.08,5.08,0,0,0,5.07,5.07Z"/><path class="cls-2" d="M605.75,307.46a45.75,45.75,0,1,1-32.35,13.4A45.62,45.62,0,0,1,605.75,307.46Z"/><circle class="cls-13" cx="605.75" cy="353.21" r="34.98" transform="translate(-52.07 110.39) rotate(-9.99)"/><rect class="cls-10" x="604.99" y="320.48" width="1.52" height="3.37" rx="0.76"/><rect class="cls-10" x="604.99" y="382.57" width="1.52" height="3.37" rx="0.76"/><path class="cls-2" d="M622.12,324.86h0a.77.77,0,0,1,.28,1l-.93,1.6a.76.76,0,0,1-1,.28h0a.77.77,0,0,1-.28-1l.93-1.6A.77.77,0,0,1,622.12,324.86Z"/><path class="cls-2" d="M591.07,378.64h0a.77.77,0,0,1,.28,1l-.93,1.6a.75.75,0,0,1-1,.28h0a.76.76,0,0,1-.27-1l.92-1.6A.77.77,0,0,1,591.07,378.64Z"/><path class="cls-2" d="M634.1,336.84h0a.76.76,0,0,1-.28,1l-1.6.93a.77.77,0,0,1-1-.28h0a.77.77,0,0,1,.28-1l1.6-.93A.77.77,0,0,1,634.1,336.84Z"/><path class="cls-2" d="M580.32,367.89h0a.76.76,0,0,1-.27,1l-1.61.93a.77.77,0,0,1-1-.28h0a.77.77,0,0,1,.28-1l1.61-.93A.75.75,0,0,1,580.32,367.89Z"/><rect class="cls-10" x="635.11" y="352.45" width="3.37" height="1.52" rx="0.76"/><rect class="cls-10" x="573.02" y="352.45" width="3.37" height="1.52" rx="0.76"/><path class="cls-2" d="M634.1,369.58h0a.76.76,0,0,1-1,.28l-1.6-.93a.76.76,0,0,1-.28-1h0a.77.77,0,0,1,1-.28l1.6.93A.76.76,0,0,1,634.1,369.58Z"/><path class="cls-2" d="M580.32,338.53h0a.75.75,0,0,1-1,.28l-1.61-.93a.76.76,0,0,1-.28-1h0a.78.78,0,0,1,1-.28l1.6.93A.76.76,0,0,1,580.32,338.53Z"/><path class="cls-2" d="M622.12,381.56h0a.77.77,0,0,1-1-.28l-.93-1.6a.78.78,0,0,1,.28-1h0a.76.76,0,0,1,1,.28l.93,1.6A.76.76,0,0,1,622.12,381.56Z"/><path class="cls-2" d="M591.07,327.78h0a.76.76,0,0,1-1-.28l-.93-1.6a.78.78,0,0,1,.28-1h0a.76.76,0,0,1,1,.28l.93,1.6A.76.76,0,0,1,591.07,327.78Z"/><path class="cls-2" d="M606.83,353.21a1.08,1.08,0,1,1-2.16,0V328a1.08,1.08,0,0,1,2.16,0Z"/><path class="cls-11" d="M606.54,352.48A1.08,1.08,0,0,1,605,354L592.5,340.57a1.08,1.08,0,0,1,1.57-1.47Z"/><path class="cls-3" d="M188.68,73.85h67.37a10.25,10.25,0,0,1,10.22,10.22v72.1a1.14,1.14,0,0,1-1.95.81L246.9,139.56H188.68a10.24,10.24,0,0,1-10.22-10.22V84.07A10.25,10.25,0,0,1,188.68,73.85Z"/><path class="cls-4" d="M184.16,79.25h67.37a9.39,9.39,0,0,1,9.34,9.34v72.1a.29.29,0,0,1,0,.14.27.27,0,0,1-.12.09.26.26,0,0,1-.15,0h0a.26.26,0,0,1-.11-.07L243,143.45a.89.89,0,0,0-.63-.26H184.16a9.36,9.36,0,0,1-9.33-9.33V88.59a9.37,9.37,0,0,1,9.33-9.34Zm67.37-1.77H184.16a11.15,11.15,0,0,0-11.11,11.11v45.27A11.15,11.15,0,0,0,184.16,145H242l17.16,17.15a2,2,0,0,0,1,.55h.05a2,2,0,0,0,1.17-.12,2.05,2.05,0,0,0,.92-.74,2.1,2.1,0,0,0,.33-1.13V88.59a11.13,11.13,0,0,0-11.11-11.11Z"/><path class="cls-5" d="M240,93.1h0a11.69,11.69,0,0,0-16.48,0l-1.12,1.12-1.12-1.12a11.68,11.68,0,0,0-16.47,0h0a11.69,11.69,0,0,0,0,16.48l1.12,1.12,16.47,16.47,16.48-16.47,1.12-1.12A11.69,11.69,0,0,0,240,93.1Z"/><path class="cls-4" d="M668.79,195.16Zm-5.77-22a11.09,11.09,0,1,0,3.25,7.84A11,11,0,0,0,663,173.2Zm-2.39-11a19.43,19.43,0,0,1,8.16,4.73.67.67,0,0,0,.81.1l5.16-3h0a1.29,1.29,0,0,1,.94-.11,1.26,1.26,0,0,1,.77.59l0,0,3.63,6.28a1.3,1.3,0,0,1-.47,1.75l0,0-5.12,2.95a.67.67,0,0,0-.32.75h0a19.72,19.72,0,0,1,.43,2.34,19.12,19.12,0,0,1,0,4.78,19.89,19.89,0,0,1-.43,2.35.68.68,0,0,0,.36.77l5.11,2.95h0a1.3,1.3,0,0,1,.47,1.75l-3.65,6.32h0a1.29,1.29,0,0,1-.77.59,1.32,1.32,0,0,1-1-.12l0,0-5.12-2.95a.66.66,0,0,0-.81.1A20.13,20.13,0,0,1,665,198a19.3,19.3,0,0,1-4.38,1.86.69.69,0,0,0-.5.66v5.94a1.27,1.27,0,0,1-.37.9,1.24,1.24,0,0,1-.9.38h-7.3a1.24,1.24,0,0,1-.9-.38,1.28,1.28,0,0,1-.38-.9v-5.94a.69.69,0,0,0-.52-.67,19.5,19.5,0,0,1-4.35-1.85,19.82,19.82,0,0,1-3.81-2.87.68.68,0,0,0-.85-.08l-5.12,3a1.32,1.32,0,0,1-1,.12,1.29,1.29,0,0,1-.77-.59l0,0-3.62-6.28h0a1.28,1.28,0,0,1-.13-1,1.31,1.31,0,0,1,.59-.78l5.15-3a.69.69,0,0,0,.33-.75h0a18,18,0,0,1-.43-2.35,19.12,19.12,0,0,1,0-4.78,17.89,17.89,0,0,1,.43-2.34.68.68,0,0,0-.36-.77l-5.12-2.95a1.31,1.31,0,0,1-.59-.78,1.27,1.27,0,0,1,.13-1l0,0,3.63-6.28h0a1.26,1.26,0,0,1,.77-.59,1.27,1.27,0,0,1,1,.12h0l5.16,3a.68.68,0,0,0,.82-.11,20.07,20.07,0,0,1,3.8-2.87,19.73,19.73,0,0,1,4.38-1.85.68.68,0,0,0,.49-.66v-5.95a1.28,1.28,0,0,1,1.28-1.27h7.3a1.26,1.26,0,0,1,1.27,1.27v5.95A.68.68,0,0,0,660.63,162.2Z"/><path class="cls-17" d="M133.73,323h57.79a4.79,4.79,0,0,0,4.78-4.79V274.31a4.79,4.79,0,0,0-4.78-4.78h-2.35V267.3a1.33,1.33,0,0,0-1.32-1.32H170.39a1.32,1.32,0,0,0-1.31,1.32v2.23H133.73a4.79,4.79,0,0,0-4.78,4.78v43.87A4.79,4.79,0,0,0,133.73,323Z"/><rect class="cls-13" x="133.65" y="277.9" width="44.31" height="45.07" rx="3.9"/><path class="cls-4" d="M139.5,323h53.35a8.41,8.41,0,0,0,6.91-4.79l16.82-37.75c1.18-2.63,0-4.79-2.65-4.79h-2.81l1.06-2.37c.43-1,0-1.74-1-1.74H191.74a3.08,3.08,0,0,0-2.53,1.74l-1.05,2.37H160.58a8.43,8.43,0,0,0-6.92,4.79l-16.82,37.75C135.67,320.82,136.86,323,139.5,323Z"/><path class="cls-3" d="M368.24,45.3H475.57A5.46,5.46,0,0,1,481,50.74v38.4a.61.61,0,0,1-.38.56.62.62,0,0,1-.66-.13l-9.27-9.28H368.24a5.46,5.46,0,0,1-5.44-5.44V50.74A5.46,5.46,0,0,1,368.24,45.3Z"/><path class="cls-18" d="M384.2,75.67a12.34,12.34,0,1,0-12.33-12.34A12.36,12.36,0,0,0,384.2,75.67Z"/><path class="cls-3" d="M384.2,61.18a3.37,3.37,0,1,0-3.37-3.37A3.38,3.38,0,0,0,384.2,61.18Z"/><path class="cls-3" d="M384.2,62.25h0A4.79,4.79,0,0,1,389,67v4.66a.53.53,0,0,1-.53.53H380a.54.54,0,0,1-.54-.53V67A4.8,4.8,0,0,1,384.2,62.25Z"/><path class="cls-19" d="M414.86,62.2h24.52a1.13,1.13,0,0,1,1.13,1.13v0a1.12,1.12,0,0,1-1.12,1.12H414.86a1.12,1.12,0,0,1-1.12-1.12v0a1.12,1.12,0,0,1,1.12-1.12Z"/><path class="cls-19" d="M404.43,62.2h3.29a1.13,1.13,0,0,1,1.13,1.13v0a1.12,1.12,0,0,1-1.12,1.12h-3.29a1.12,1.12,0,0,1-1.12-1.12v0a1.12,1.12,0,0,1,1.12-1.12Z"/><path class="cls-4" d="M404.43,55.29h35a1.13,1.13,0,0,1,1.12,1.13h0a1.12,1.12,0,0,1-1.12,1.12h-35a1.13,1.13,0,0,1-1.13-1.12h0A1.14,1.14,0,0,1,404.43,55.29Z"/><path class="cls-4" d="M404.43,69.12h35a1.12,1.12,0,0,1,1.12,1.12h0a1.13,1.13,0,0,1-1.12,1.13h-35a1.14,1.14,0,0,1-1.13-1.13h0A1.13,1.13,0,0,1,404.43,69.12Z"/><path class="cls-5" d="M460.12,75.67a12.34,12.34,0,1,0-12.34-12.34A12.36,12.36,0,0,0,460.12,75.67Z"/><path class="cls-3" d="M464.76,68.14Zm-2-7.48a3.77,3.77,0,1,0,1.11,2.67,3.74,3.74,0,0,0-1.11-2.67ZM462,56.91a6.66,6.66,0,0,1,2.78,1.61.2.2,0,0,0,.27,0l1.76-1h0a.43.43,0,0,1,.58.16h0l1.24,2.14a.43.43,0,0,1,0,.33.45.45,0,0,1-.2.27h0l-1.75,1a.24.24,0,0,0-.11.26h0a5.14,5.14,0,0,1,.15.8,6.59,6.59,0,0,1,0,1.62,5.14,5.14,0,0,1-.15.8.25.25,0,0,0,.13.27l1.74,1h0a.45.45,0,0,1,.2.27.43.43,0,0,1,0,.33L467.38,69h0a.41.41,0,0,1-.26.2.42.42,0,0,1-.33,0h0l-1.75-1a.23.23,0,0,0-.27,0,7.38,7.38,0,0,1-1.3,1,6.73,6.73,0,0,1-1.49.63.22.22,0,0,0-.17.22v2a.44.44,0,0,1-.44.44h-2.48a.44.44,0,0,1-.44-.44V70a.22.22,0,0,0-.18-.22,6.94,6.94,0,0,1-1.48-.63,7.38,7.38,0,0,1-1.3-1,.23.23,0,0,0-.29,0l-1.74,1a.42.42,0,0,1-.33,0,.43.43,0,0,1-.26-.2h0l-1.24-2.14h0a.43.43,0,0,1,0-.33.45.45,0,0,1,.2-.27l1.76-1a.22.22,0,0,0,.1-.26h0a6.67,6.67,0,0,1-.14-.8,6.59,6.59,0,0,1,0-1.62,6.67,6.67,0,0,1,.14-.8.23.23,0,0,0-.12-.27l-1.74-1a.45.45,0,0,1-.2-.27.43.43,0,0,1,0-.33h0l1.23-2.14h0a.43.43,0,0,1,.26-.2.42.42,0,0,1,.33,0h0l1.76,1a.23.23,0,0,0,.28,0,6.46,6.46,0,0,1,1.29-1,6.73,6.73,0,0,1,1.49-.63.23.23,0,0,0,.17-.22v-2a.44.44,0,0,1,.44-.44h2.48a.44.44,0,0,1,.44.44v2A.22.22,0,0,0,462,56.91Z"/><rect class="cls-20" x="157.21" y="425.76" width="75.09" height="6.89"/><path class="cls-2" d="M166.46,426.36a1.49,1.49,0,0,0,0-3h-53a5.79,5.79,0,0,0-4.1,1.71h0a5.82,5.82,0,0,0,4.11,9.92h53a1.49,1.49,0,1,0,0-3H164a11.24,11.24,0,0,1-1.17-1,3.17,3.17,0,0,1-1.09-2.35,3.64,3.64,0,0,1,1.4-2.32Z"/><path class="cls-17" d="M232.3,426.36a1.49,1.49,0,0,0,0-3H165.77a5.81,5.81,0,0,0-4.1,1.71h0a5.82,5.82,0,0,0,4.11,9.92H232.3a1.49,1.49,0,1,0,0-3H165.77a2.85,2.85,0,0,1,0-5.69Z"/><rect class="cls-20" x="115.75" y="412.6" width="62.95" height="8.35"/><path class="cls-6" d="M167.48,413.32a1.81,1.81,0,1,1,0-3.61h48.88a7,7,0,0,1,5,2.08h0a7.06,7.06,0,0,1-5,12H167.48a1.81,1.81,0,1,1,0-3.61h3a12.64,12.64,0,0,0,1.42-1.23,3.8,3.8,0,0,0,1.32-2.85,4.37,4.37,0,0,0-1.7-2.82Z"/><path class="cls-21" d="M115.75,413.32a1.81,1.81,0,1,1,0-3.61h52.57a7,7,0,0,1,5,2.08h0a7,7,0,0,1,0,10,7,7,0,0,1-5,2.08H115.75a1.81,1.81,0,1,1,0-3.61h52.57a3.45,3.45,0,0,0,0-6.9Z"/><rect class="cls-20" x="162.56" y="398.22" width="40.85" height="8.55"/><path class="cls-8" d="M174,399a1.85,1.85,0,1,0,0-3.69H143.93a7.19,7.19,0,0,0-5.1,2.12h0a7.22,7.22,0,0,0,5.1,12.31H174a1.85,1.85,0,1,0,0-3.69h-3a11.59,11.59,0,0,1-1.45-1.26,3.9,3.9,0,0,1-1.36-2.92A4.45,4.45,0,0,1,170,399Z"/><path class="cls-22" d="M203.41,399a1.85,1.85,0,1,0,0-3.69H173.19a7.21,7.21,0,0,0-5.1,2.12h0a7.22,7.22,0,0,0,5.1,12.31h30.22a1.85,1.85,0,1,0,0-3.69H173.19a3.53,3.53,0,0,1-2.5-6,3.56,3.56,0,0,1,2.5-1Z"/><path class="cls-5" d="M521.42,428.92h50.87a3.06,3.06,0,0,1,3.05,3.05h0a3.06,3.06,0,0,1-3.05,3H521.42a3.06,3.06,0,0,1-3-3h0A3.06,3.06,0,0,1,521.42,428.92Z"/><path class="cls-2" d="M523.12,428.92h47.46a1.73,1.73,0,0,0,1.73-1.72h0a1.73,1.73,0,0,0-1.73-1.72H523.12a1.73,1.73,0,0,0-1.72,1.72h0A1.73,1.73,0,0,0,523.12,428.92Z"/><path class="cls-6" d="M523.22,419.72h47.27a2.89,2.89,0,0,1,2.88,2.88h0a2.89,2.89,0,0,1-2.88,2.88H523.22a2.89,2.89,0,0,1-2.88-2.88h0A2.89,2.89,0,0,1,523.22,419.72Z"/><rect class="cls-23" x="525.68" y="418.4" width="7.97" height="7.97" rx="1.39" transform="translate(-143.55 498.15) rotate(-44.99)"/><path class="cls-23" d="M535.66,418.4h5.2a1.38,1.38,0,0,1,1.38,1.38V425a1.39,1.39,0,0,1-1.39,1.39h-5.2a1.38,1.38,0,0,1-1.38-1.38v-5.2a1.39,1.39,0,0,1,1.39-1.39Z" transform="translate(-141.03 504.22) rotate(-44.99)"/><path class="cls-23" d="M544.26,418.4h5.2a1.38,1.38,0,0,1,1.38,1.38V425a1.39,1.39,0,0,1-1.39,1.39h-5.2a1.38,1.38,0,0,1-1.38-1.38v-5.2A1.39,1.39,0,0,1,544.26,418.4Z" transform="translate(-138.51 510.3) rotate(-44.99)"/><rect class="cls-23" x="551.48" y="418.4" width="7.97" height="7.97" rx="1.39" transform="translate(-136.01 516.3) rotate(-44.98)"/><path class="cls-23" d="M561.46,418.4h5.2a1.38,1.38,0,0,1,1.38,1.38V425a1.39,1.39,0,0,1-1.39,1.39h-5.2a1.38,1.38,0,0,1-1.38-1.38v-5.2a1.38,1.38,0,0,1,1.38-1.38Z" transform="translate(-133.49 522.38) rotate(-44.98)"/><path class="cls-17" d="M519.22,419.72h55.14a1.47,1.47,0,0,1,1.46,1.46h0a1.46,1.46,0,0,1-1.46,1.45H519.22a1.45,1.45,0,0,1-1.46-1.45h0A1.46,1.46,0,0,1,519.22,419.72Z"/><path class="cls-5" d="M576.61,415.54h0v.1h0a4.08,4.08,0,0,1-4.07,4.07H521.17c-4.31,0-4.9-3.46-3.71-8.28A17.69,17.69,0,0,1,534.57,398H559A17.68,17.68,0,0,1,576.61,415.54Z"/><path class="cls-6" d="M531,400.68h0a.59.59,0,0,1,0,.82L529.46,403a.56.56,0,0,1-.81,0h0a.58.58,0,0,1,0-.81l1.53-1.53A.58.58,0,0,1,531,400.68Z"/><path class="cls-6" d="M537.67,400.68h0a.57.57,0,0,1,0,.82L536.14,403a.56.56,0,0,1-.81,0h0a.58.58,0,0,1,0-.81l1.53-1.53A.58.58,0,0,1,537.67,400.68Z"/><path class="cls-6" d="M544.35,400.68h0a.57.57,0,0,1,0,.82L542.83,403a.57.57,0,0,1-.82,0h0a.58.58,0,0,1,0-.81l1.53-1.53A.58.58,0,0,1,544.35,400.68Z"/><path class="cls-6" d="M551,400.68h0a.57.57,0,0,1,0,.82L549.51,403a.56.56,0,0,1-.81,0h0a.58.58,0,0,1,0-.81l1.53-1.53A.58.58,0,0,1,551,400.68Z"/><path class="cls-6" d="M557.71,400.68h0a.59.59,0,0,1,0,.82L556.19,403a.56.56,0,0,1-.81,0h0a.58.58,0,0,1,0-.81l1.53-1.53A.58.58,0,0,1,557.71,400.68Z"/><path class="cls-6" d="M564.4,400.68h0a.59.59,0,0,1,0,.82L562.87,403a.56.56,0,0,1-.81,0h0a.56.56,0,0,1,0-.81l1.52-1.53A.59.59,0,0,1,564.4,400.68Z"/><path class="cls-6" d="M566,406h0a.58.58,0,0,0,0,.81l1.53,1.53a.58.58,0,0,0,.81,0h0a.56.56,0,0,0,0-.81L566.77,406A.58.58,0,0,0,566,406Z"/><path class="cls-6" d="M559.27,406h0a.58.58,0,0,0,0,.81l1.53,1.53a.58.58,0,0,0,.81,0h0a.56.56,0,0,0,0-.81L560.09,406A.59.59,0,0,0,559.27,406Z"/><path class="cls-6" d="M552.59,406h0a.58.58,0,0,0,0,.81l1.53,1.53a.58.58,0,0,0,.81,0h0a.57.57,0,0,0,0-.81L553.4,406A.58.58,0,0,0,552.59,406Z"/><path class="cls-6" d="M545.91,406h0a.58.58,0,0,0,0,.81l1.53,1.53a.58.58,0,0,0,.81,0h0a.58.58,0,0,0,0-.81L546.72,406A.58.58,0,0,0,545.91,406Z"/><path class="cls-6" d="M539.23,406h0a.56.56,0,0,0,0,.81l1.52,1.53a.59.59,0,0,0,.82,0h0a.58.58,0,0,0,0-.81L540,406A.58.58,0,0,0,539.23,406Z"/><path class="cls-6" d="M532.55,406h0a.56.56,0,0,0,0,.81l1.52,1.53a.59.59,0,0,0,.82,0h0a.58.58,0,0,0,0-.81L533.36,406A.58.58,0,0,0,532.55,406Z"/><rect class="cls-19" x="492.19" y="188.66" width="76.89" height="99.36" rx="7.64"/><rect class="cls-9" x="499.06" y="196.17" width="63.14" height="2.8" rx="1.4"/><rect class="cls-9" x="499.06" y="204.95" width="63.14" height="2.8" rx="1.4"/><rect class="cls-9" x="548.01" y="214.63" width="14.19" height="2.8" rx="1.4"/><rect class="cls-9" x="548.01" y="224.56" width="14.19" height="2.8" rx="1.4"/><rect class="cls-9" x="548.01" y="234.49" width="14.19" height="2.8" rx="1.4"/><rect class="cls-9" x="548.01" y="244.42" width="14.19" height="2.8" rx="1.4"/><rect class="cls-9" x="548.01" y="254.35" width="14.19" height="2.8" rx="1.4"/><rect class="cls-9" x="548.01" y="264.27" width="14.19" height="2.8" rx="1.4"/><rect class="cls-9" x="530.5" y="274.2" width="31.7" height="2.8" rx="1.4"/><rect class="cls-9" x="533.37" y="264.27" width="11.33" height="2.8" rx="1.4"/><rect class="cls-9" x="537.19" y="254.35" width="7.1" height="2.8" rx="1.4"/><rect class="cls-9" x="540.18" y="244.42" width="5.95" height="2.8" rx="1.4"/><path class="cls-3" d="M499.06,223.72h5.41V274.3a2.71,2.71,0,0,1-2.71,2.7h0a2.71,2.71,0,0,1-2.7-2.7V223.72Z"/><path class="cls-3" d="M504.47,248.16V274.3a2.71,2.71,0,0,1-2.71,2.7h0a2.71,2.71,0,0,1-2.7-2.7V248.16a1.22,1.22,0,0,0,1.22,1.21h3C503.92,249.37,504.47,247.49,504.47,248.16Z"/><path class="cls-1" d="M501.19,213.43c-.15.32-2.13,8.42-2.13,10.29.88,2.15,4.39,1.57,5.41,0,0-1.87-2-10-2.13-10.29A.63.63,0,0,0,501.19,213.43Z"/><path class="cls-2" d="M501.19,213.43c-.05.1-.27.94-.56,2.12a2.7,2.7,0,0,0,1.13.25h0a2.64,2.64,0,0,0,1.13-.25c-.28-1.18-.5-2-.55-2.12A.63.63,0,0,0,501.19,213.43Z"/><path class="cls-1" d="M503.25,271.48h-3a1.22,1.22,0,0,1-1.22-1.22v2.57a1.22,1.22,0,0,0,1.22,1.22h3a1.22,1.22,0,0,0,1.22-1.22v-2.57A1.22,1.22,0,0,1,503.25,271.48Z"/><path class="cls-3" d="M534.66,237.65Zm-3.55-13.53a6.84,6.84,0,1,0,2,4.84,6.86,6.86,0,0,0-2-4.84Zm-1.48-6.77a11.81,11.81,0,0,1,2.68,1.14,12.27,12.27,0,0,1,2.35,1.77.42.42,0,0,0,.5.06l3.17-1.83h0a.79.79,0,0,1,.58-.07.77.77,0,0,1,.48.37v0l2.24,3.87a.78.78,0,0,1,.07.6.77.77,0,0,1-.36.47l0,0-3.15,1.82a.41.41,0,0,0-.2.46h0a11.41,11.41,0,0,1,.26,1.44,12,12,0,0,1,.09,1.48,11.84,11.84,0,0,1-.09,1.47,11.41,11.41,0,0,1-.26,1.44.42.42,0,0,0,.22.48l3.15,1.82h0a.77.77,0,0,1,.36.47.78.78,0,0,1-.07.6l-2.25,3.89h0a.77.77,0,0,1-.48.37.8.8,0,0,1-.6-.08h0l-3.15-1.82a.41.41,0,0,0-.5.06,12.27,12.27,0,0,1-2.35,1.77,12,12,0,0,1-2.7,1.15.42.42,0,0,0-.3.4v3.66a.79.79,0,0,1-.79.79H524a.79.79,0,0,1-.79-.79V241a.43.43,0,0,0-.32-.41,11.81,11.81,0,0,1-2.68-1.14,12.27,12.27,0,0,1-2.35-1.77.42.42,0,0,0-.52-.05l-3.16,1.82a.78.78,0,0,1-1.07-.29v0l-2.24-3.87h0a.75.75,0,0,1-.07-.6.74.74,0,0,1,.36-.47l3.17-1.84a.41.41,0,0,0,.2-.46h0a11.41,11.41,0,0,1-.26-1.44,11.84,11.84,0,0,1-.09-1.47,12,12,0,0,1,.09-1.48,11.41,11.41,0,0,1,.26-1.44.42.42,0,0,0-.22-.48l-3.15-1.82a.74.74,0,0,1-.36-.47.75.75,0,0,1,.07-.6l0,0,2.23-3.87h0a.78.78,0,0,1,1.07-.29h0l3.18,1.83a.41.41,0,0,0,.51-.07,12.26,12.26,0,0,1,2.34-1.76,12,12,0,0,1,2.7-1.14.44.44,0,0,0,.3-.41v-3.66a.79.79,0,0,1,.79-.79h4.49a.79.79,0,0,1,.79.79v3.66A.42.42,0,0,0,529.63,217.35Z"/><path class="cls-3" d="M523.3,265.44Zm-2.2-8.37a4.22,4.22,0,1,0,1.24,3,4.24,4.24,0,0,0-1.24-3Zm-.91-4.19a7.72,7.72,0,0,1,3.11,1.8.24.24,0,0,0,.3,0l2-1.13h0a.5.5,0,0,1,.36,0,.46.46,0,0,1,.29.22v0l1.38,2.39a.49.49,0,0,1,0,.37.51.51,0,0,1-.22.3h0L525.48,258a.26.26,0,0,0-.12.29h0a7.8,7.8,0,0,1,.17.89,8.31,8.31,0,0,1,0,1.82,8.74,8.74,0,0,1-.17.89.27.27,0,0,0,.14.3l2,1.12h0a.51.51,0,0,1,.22.3.49.49,0,0,1,0,.37l-1.39,2.4h0a.44.44,0,0,1-.29.23.48.48,0,0,1-.37-.05h0l-1.95-1.12a.24.24,0,0,0-.3,0,7.41,7.41,0,0,1-1.46,1.09,7.62,7.62,0,0,1-1.66.71.26.26,0,0,0-.19.25v2.27a.49.49,0,0,1-.15.34.48.48,0,0,1-.34.14h-2.78a.46.46,0,0,1-.34-.14.49.49,0,0,1-.15-.34v-2.27a.25.25,0,0,0-.2-.25,7.72,7.72,0,0,1-3.11-1.8.24.24,0,0,0-.32,0l-2,1.12a.48.48,0,0,1-.37.05.44.44,0,0,1-.29-.23h0L508.59,264h0a.49.49,0,0,1-.05-.37.51.51,0,0,1,.22-.3l2-1.13a.26.26,0,0,0,.12-.29h0a8.74,8.74,0,0,1-.17-.89,8.31,8.31,0,0,1,0-1.82,7.8,7.8,0,0,1,.17-.89.26.26,0,0,0-.14-.3l-2-1.12a.51.51,0,0,1-.22-.3.49.49,0,0,1,.05-.37h0l1.39-2.4h0a.46.46,0,0,1,.29-.22.53.53,0,0,1,.37,0h0l2,1.13a.27.27,0,0,0,.32,0,7.34,7.34,0,0,1,1.45-1.09,7.62,7.62,0,0,1,1.66-.71.26.26,0,0,0,.19-.25v-2.27a.49.49,0,0,1,.15-.34.46.46,0,0,1,.34-.14h2.78a.48.48,0,0,1,.34.14.49.49,0,0,1,.15.34v2.27A.26.26,0,0,0,520.19,252.88Z"/><rect class="cls-13" x="209.99" y="175.87" width="28.84" height="28.85" rx="2.76"/><rect class="cls-13" x="209.99" y="214.47" width="28.84" height="28.85" rx="2.76"/><path class="cls-4" d="M209.08,171.69h23.33a3.63,3.63,0,0,1,2.58,1.07l0,.06a3.63,3.63,0,0,1,1,2.52v23.33a3.65,3.65,0,0,1-3.65,3.64H209.08a3.63,3.63,0,0,1-2.57-1.07l0-.05a3.65,3.65,0,0,1-1-2.52V175.34a3.67,3.67,0,0,1,1.07-2.58,3.63,3.63,0,0,1,2.57-1.07Zm23.33,1.78H209.08a1.87,1.87,0,0,0-1.32.55,1.83,1.83,0,0,0-.55,1.32v23.33a1.85,1.85,0,0,0,.52,1.28l0,0a1.87,1.87,0,0,0,1.32.55h23.33a1.88,1.88,0,0,0,1.87-1.87V175.34a1.82,1.82,0,0,0-.51-1.28l0,0A1.85,1.85,0,0,0,232.41,173.47Z"/><path class="cls-4" d="M209.08,210.29h23.33a3.63,3.63,0,0,1,2.58,1.07l0,.06a3.63,3.63,0,0,1,1,2.52v23.33a3.65,3.65,0,0,1-3.65,3.64H209.08a3.63,3.63,0,0,1-2.57-1.07l0-.05a3.65,3.65,0,0,1-1-2.52V213.94a3.67,3.67,0,0,1,1.07-2.58,3.63,3.63,0,0,1,2.57-1.07Zm23.33,1.78H209.08a1.88,1.88,0,0,0-1.87,1.87v23.33a1.85,1.85,0,0,0,.52,1.28l0,0a1.87,1.87,0,0,0,1.32.55h23.33a1.88,1.88,0,0,0,1.87-1.87V213.94a1.82,1.82,0,0,0-.51-1.28l0,0A1.85,1.85,0,0,0,232.41,212.07Z"/><path class="cls-5" d="M212.35,219.52a1.55,1.55,0,1,1,2.17-2.21l6.21,6.1,6.1-6.2a1.55,1.55,0,0,1,2.21,2.17l-6.1,6.21,6.2,6.1A1.55,1.55,0,0,1,227,233.9l-6.21-6.11L214.66,234a1.55,1.55,0,1,1-2.21-2.17l6.11-6.21Z"/><path class="cls-18" d="M213.23,188.71a1.54,1.54,0,0,1,0-2.19,1.56,1.56,0,0,1,2.19,0l3.24,3.12,7.41-8.45a1.55,1.55,0,1,1,2.33,2l-8.53,9.72a1.55,1.55,0,0,1-2.19.05Z"/><rect class="cls-19" x="169.24" y="152.23" width="9.15" height="9.15" rx="2.13"/><rect class="cls-19" x="152.31" y="152.23" width="9.15" height="9.15" rx="2.13"/><rect class="cls-19" x="135.39" y="152.23" width="9.15" height="9.15" rx="2.13"/><path class="cls-19" d="M120.6,152.23h4.88a2.14,2.14,0,0,1,2.14,2.14v4.88a2.13,2.13,0,0,1-2.13,2.13H120.6a2.13,2.13,0,0,1-2.13-2.13v-4.88A2.13,2.13,0,0,1,120.6,152.23Z"/><rect class="cls-19" x="101.54" y="152.23" width="9.15" height="9.15" rx="2.13"/><rect class="cls-19" x="84.61" y="152.23" width="9.15" height="9.15" rx="2.13"/><path class="cls-19" d="M136.91,133.78h4.88a2.13,2.13,0,0,1,2.13,2.13v4.88a2.13,2.13,0,0,1-2.13,2.13h-4.88a2.13,2.13,0,0,1-2.13-2.13v-4.88A2.14,2.14,0,0,1,136.91,133.78Z"/><path class="cls-19" d="M120,133.78h4.88a2.13,2.13,0,0,1,2.13,2.13v4.88a2.13,2.13,0,0,1-2.13,2.13H120a2.13,2.13,0,0,1-2.13-2.13v-4.88A2.14,2.14,0,0,1,120,133.78Z"/><path class="cls-19" d="M103.06,133.78h4.88a2.13,2.13,0,0,1,2.13,2.13v4.88a2.13,2.13,0,0,1-2.13,2.13h-4.88a2.13,2.13,0,0,1-2.13-2.13v-4.88A2.14,2.14,0,0,1,103.06,133.78Z"/><rect class="cls-19" x="118.46" y="172.05" width="9.15" height="9.15" rx="2.13"/><rect class="cls-19" x="101.54" y="172.05" width="9.15" height="9.15" rx="2.13"/><rect class="cls-19" x="468.3" y="116.12" width="9.15" height="9.15" rx="2.13"/><rect class="cls-19" x="451.37" y="116.12" width="9.15" height="9.15" rx="2.13"/><rect class="cls-19" x="434.45" y="116.12" width="9.15" height="9.15" rx="2.13"/><path class="cls-19" d="M419.66,116.12h4.88a2.13,2.13,0,0,1,2.13,2.13v4.88a2.13,2.13,0,0,1-2.13,2.13h-4.88a2.14,2.14,0,0,1-2.14-2.14v-4.88A2.13,2.13,0,0,1,419.66,116.12Z"/><path class="cls-19" d="M402.73,116.12h4.88a2.14,2.14,0,0,1,2.14,2.14v4.88a2.13,2.13,0,0,1-2.13,2.13h-4.88a2.13,2.13,0,0,1-2.13-2.13v-4.88A2.13,2.13,0,0,1,402.73,116.12Z"/><rect class="cls-19" x="450.76" y="97.67" width="9.15" height="9.15" rx="2.13"/><rect class="cls-19" x="433.83" y="97.67" width="9.15" height="9.15" rx="2.13"/><path class="cls-19" d="M419,97.67h4.88a2.14,2.14,0,0,1,2.14,2.14v4.88a2.13,2.13,0,0,1-2.13,2.13H419a2.13,2.13,0,0,1-2.13-2.13V99.81A2.13,2.13,0,0,1,419,97.67Z"/><rect class="cls-19" x="434.45" y="135.94" width="9.15" height="9.15" rx="2.13"/><path class="cls-19" d="M419.66,135.94h4.88a2.13,2.13,0,0,1,2.13,2.13V143a2.13,2.13,0,0,1-2.13,2.13h-4.88a2.14,2.14,0,0,1-2.14-2.14v-4.88A2.13,2.13,0,0,1,419.66,135.94Z"/><path class="cls-3" d="M136.44,72.31a1.33,1.33,0,1,1,2.65,0v6a1.33,1.33,0,0,1-2.65,0v-6Zm-9,4.84a1.32,1.32,0,0,1,1.87-1.87l4.22,4.22a1.32,1.32,0,0,1-1.87,1.87l-4.22-4.22Zm-3,9.82a1.33,1.33,0,1,1,0-2.65h6a1.33,1.33,0,0,1,0,2.65Zm4.84,9a1.33,1.33,0,0,1-1.87-1.88l4.22-4.22a1.33,1.33,0,0,1,1.87,1.88L129.27,96Zm9.82,3a1.33,1.33,0,1,1-2.65,0V93a1.33,1.33,0,1,1,2.65,0v6Zm9-4.84A1.33,1.33,0,0,1,146.26,96L142,91.8a1.33,1.33,0,0,1,1.88-1.88l4.22,4.22Zm3-9.82a1.33,1.33,0,1,1,0,2.65h-6a1.33,1.33,0,1,1,0-2.65Zm-4.84-9a1.33,1.33,0,0,1,1.88,1.87l-4.22,4.22A1.33,1.33,0,0,1,142,79.5Z"/><path class="cls-3" d="M184.58,350.62a1.33,1.33,0,1,1,2.65,0v6a1.33,1.33,0,0,1-2.65,0v-6Zm-9,4.85a1.33,1.33,0,1,1,1.87-1.88l4.22,4.22a1.33,1.33,0,0,1-1.87,1.88l-4.22-4.22Zm-3,9.82a1.33,1.33,0,1,1,0-2.66h6a1.33,1.33,0,0,1,0,2.66Zm4.84,9a1.33,1.33,0,0,1-1.87-1.88l4.22-4.22a1.33,1.33,0,0,1,1.87,1.88l-4.22,4.22Zm9.82,3a1.33,1.33,0,0,1-2.65,0v-6a1.33,1.33,0,1,1,2.65,0v6Zm9.05-4.85a1.35,1.35,0,0,1,0,1.88,1.33,1.33,0,0,1-1.88,0l-4.22-4.22a1.33,1.33,0,0,1,1.88-1.88l4.22,4.22Zm3-9.82a1.33,1.33,0,1,1,0,2.66h-6a1.33,1.33,0,1,1,0-2.66Zm-4.84-9a1.33,1.33,0,0,1,1.88,0,1.35,1.35,0,0,1,0,1.88l-4.22,4.22a1.35,1.35,0,0,1-1.88,0,1.33,1.33,0,0,1,0-1.88Z"/><path class="cls-3" d="M596.78,180.62a1.33,1.33,0,0,1,2.66,0v6a1.33,1.33,0,1,1-2.66,0v-6Zm-9,4.85a1.33,1.33,0,0,1,0-1.88,1.35,1.35,0,0,1,1.88,0l4.22,4.22a1.35,1.35,0,0,1,0,1.88,1.33,1.33,0,0,1-1.88,0l-4.22-4.22Zm-3,9.82a1.33,1.33,0,1,1,0-2.65h6a1.33,1.33,0,1,1,0,2.65Zm4.85,9a1.33,1.33,0,0,1-1.88-1.88l4.22-4.21a1.33,1.33,0,1,1,1.88,1.87l-4.22,4.22Zm9.82,3a1.33,1.33,0,1,1-2.66,0v-6a1.33,1.33,0,0,1,2.66,0v6Zm9-4.85a1.33,1.33,0,0,1-1.88,1.88l-4.22-4.22a1.33,1.33,0,1,1,1.88-1.87l4.22,4.21Zm3-9.81a1.33,1.33,0,0,1,0,2.65h-6a1.33,1.33,0,1,1,0-2.65Zm-4.85-9a1.35,1.35,0,0,1,1.88,0,1.33,1.33,0,0,1,0,1.88l-4.22,4.22a1.33,1.33,0,0,1-1.88,0,1.35,1.35,0,0,1,0-1.88Z"/><path class="cls-3" d="M84.23,281.94v2.15h2.15A1.64,1.64,0,0,1,88,285.73h0a1.63,1.63,0,0,1-1.63,1.63H84.23v2.15a1.65,1.65,0,0,1-1.64,1.64h0A1.64,1.64,0,0,1,81,289.51v-2.15H78.81a1.64,1.64,0,0,1-1.64-1.63h0a1.65,1.65,0,0,1,1.64-1.64H81v-2.15a1.63,1.63,0,0,1,1.63-1.63h0A1.64,1.64,0,0,1,84.23,281.94Z"/><path class="cls-3" d="M264.75,203.71v2.16h2.15a1.64,1.64,0,0,1,1.64,1.63h0a1.64,1.64,0,0,1-1.64,1.63h-2.15v2.16a1.64,1.64,0,0,1-1.63,1.63h0a1.64,1.64,0,0,1-1.63-1.63v-2.16h-2.16a1.63,1.63,0,0,1-1.63-1.63h0a1.63,1.63,0,0,1,1.63-1.63h2.16v-2.16a1.64,1.64,0,0,1,1.63-1.63h0A1.64,1.64,0,0,1,264.75,203.71Z"/><path class="cls-3" d="M290.14,54.51v2.42h2.43a1.85,1.85,0,0,1,1.84,1.84h0a1.84,1.84,0,0,1-1.84,1.84h-2.43V63a1.85,1.85,0,0,1-1.84,1.84h0A1.85,1.85,0,0,1,286.46,63V60.61H284a1.84,1.84,0,0,1-1.85-1.84h0A1.85,1.85,0,0,1,284,56.93h2.42V54.51a1.84,1.84,0,0,1,1.84-1.84h0A1.84,1.84,0,0,1,290.14,54.51Z"/><path class="cls-3" d="M604.56,280.16v2.43H607a1.85,1.85,0,0,1,1.85,1.84h0a1.85,1.85,0,0,1-1.85,1.84h-2.42v2.43a1.85,1.85,0,0,1-1.84,1.84h0a1.85,1.85,0,0,1-1.84-1.84v-2.43h-2.43a1.85,1.85,0,0,1-1.84-1.84h0a1.85,1.85,0,0,1,1.84-1.84h2.43v-2.43a1.85,1.85,0,0,1,1.84-1.84h0A1.85,1.85,0,0,1,604.56,280.16Z"/><path class="cls-3" d="M539.87,358.39v2.43h2.43a1.85,1.85,0,0,1,1.84,1.84h0a1.85,1.85,0,0,1-1.84,1.84h-2.43v2.42a1.85,1.85,0,0,1-1.84,1.85h0a1.85,1.85,0,0,1-1.84-1.85V364.5h-2.43a1.85,1.85,0,0,1-1.84-1.84h0a1.85,1.85,0,0,1,1.84-1.84h2.43v-2.43a1.85,1.85,0,0,1,1.84-1.84h0A1.85,1.85,0,0,1,539.87,358.39Z"/></svg>