<svg id="OBJECTS" xmlns="http://www.w3.org/2000/svg" xmlns:xlink="http://www.w3.org/1999/xlink" viewBox="0 0 500 500"><defs><style>.cls-1{fill:none;}.cls-14,.cls-2{fill:#002d8b;}.cls-10,.cls-11,.cls-12,.cls-19,.cls-2,.cls-20,.cls-28,.cls-3,.cls-4,.cls-5,.cls-7,.cls-9{fill-rule:evenodd;}.cls-15,.cls-3{fill:#ffb5b5;}.cls-4{fill:#ff8e8e;}.cls-6{clip-path:url(#clip-path);}.cls-17,.cls-7{fill:#eceeee;}.cls-8{clip-path:url(#clip-path-2);}.cls-9{fill:#0052e9;}.cls-10{fill:#ffb3b3;}.cls-11,.cls-13{fill:#a7e5ec;}.cls-12{fill:#ffb6b6;}.cls-16{clip-path:url(#clip-path-3);}.cls-18{clip-path:url(#clip-path-4);}.cls-19{fill:#0052ea;}.cls-20{fill:#ff8b8b;}.cls-21{clip-path:url(#clip-path-5);}.cls-22{clip-path:url(#clip-path-6);}.cls-23{clip-path:url(#clip-path-7);}.cls-24{fill:#002b85;}.cls-25{fill:#00b6ca;}.cls-26{clip-path:url(#clip-path-8);}.cls-27{clip-path:url(#clip-path-9);}.cls-28{fill:#fff;}</style><clipPath id="clip-path"><path class="cls-1" d="M412.79,371.34a26.73,26.73,0,0,1-4.09,4.33l-.89,2.87,14.17-.37-.22-1.86s-3.42-3.55-3.77-5.56l-.44,1.17a2.17,2.17,0,0,0-4.24.06Z"/></clipPath><clipPath id="clip-path-2"><path class="cls-1" d="M379.44,348.39a27.05,27.05,0,0,1-5.86-1.08l-2.9.82,8,11.68,1.45-1.2s1.11-4.8,2.61-6.19l-1.23.27a2.1,2.1,0,0,0,.24-2.73,2.07,2.07,0,0,0-2.59-.79Z"/></clipPath><clipPath id="clip-path-3"><path class="cls-1" d="M288.89,370.91c.12-.43.86-3-1.56-1a14.55,14.55,0,0,1-10.92,2.37c-2.53-.42-3-.37-4.35.44-1,.56-.53,1.66-.85,2.39,15.52,2.19,22.22-.81,23-1.25-.18-2.32-1.22-2.2-.79-3.23C293.05,370.06,290,370.56,288.89,370.91Z"/></clipPath><clipPath id="clip-path-4"><path class="cls-1" d="M242.12,370.91c.12-.43.86-3-1.56-1a14.55,14.55,0,0,1-10.92,2.37c-2.53-.42-3-.37-4.35.44-1,.56-.53,1.66-.85,2.39,15.51,2.19,22.22-.81,22.95-1.25-.17-2.32-1.21-2.2-.78-3.23C246.28,370.06,243.21,370.56,242.12,370.91Z"/></clipPath><clipPath id="clip-path-5"><path class="cls-1" d="M199.18,221.21c-.1-4.38-29.12-14.6-29.65-8.57-1.12,12.87,2.5,39.22,2.87,46.24.41,7.87,2.48,16.1,2.3,23.9-.24,10.38-1.6,45.76-5.5,66.55-1.44,7.65-14.53,19.36-12.19,19.79,1.51.28,12-3.19,16.44-9.38.94-1.31.55,9.46,1.29,8.3.62-1,2.41-13.91,2.81-14.66,1.16-2.2-.44-6.18.87-10.9,3.29-11.8,10.11-28.76,11.33-37.16,1-6.82-2.53-19.95-2.37-20.63,2.1-9,7.21-21.65,9.67-31.18C200.37,240.65,199.41,231.93,199.18,221.21Z"/></clipPath><clipPath id="clip-path-6"><path class="cls-1" d="M177.48,232s13.87,42.89,15.45,51.69c.85,4.74,2.89,9.53,3.13,14.36.64,12.59,1.52,47.83.71,56.32,0,.46-2.16,8.07-1.83,13.2.3,4.74,1.68,5.6,2,6.06,3.13,4.52,5.18.26,5.64-6.84.33-5.11-.76-13.24-.48-14.38,1.65-6.76,8.54-26.78,9.44-31.06,2.3-10.81-1.08-21.68-4.95-31.21-.78-1.91,3.31-17.83,4.4-34.95,1-14.78.5-34.17-17.19-44.36-.8-.47-24.46,4-24.46,4S170.56,221.64,177.48,232Z"/></clipPath><clipPath id="clip-path-7"><path class="cls-1" d="M381.4,189.18c3.12,1.7,5.87,18.71-.31,42.23-3.36,12.83-15.29,31.27-19.81,29.35-3.18-1.34-5.52-15.67,1-39.53C365.76,208.73,378.27,187.49,381.4,189.18Z"/></clipPath><clipPath id="clip-path-8"><path class="cls-1" d="M99.15,372.81c.12-.44.86-3-1.56-1a14.59,14.59,0,0,1-10.92,2.37c-2.53-.42-3-.38-4.35.44-1,.56-.53,1.65-.85,2.38,15.51,2.19,22.22-.8,23-1.24-.18-2.33-1.22-2.2-.79-3.24C103.31,372,100.24,372.46,99.15,372.81Z"/></clipPath><clipPath id="clip-path-9"><path class="cls-1" d="M52.38,372.81c.12-.44.86-3-1.56-1A14.59,14.59,0,0,1,39.9,374.2c-2.53-.42-3-.38-4.35.44-1,.56-.54,1.65-.85,2.38,15.51,2.19,22.21-.8,22.95-1.24-.17-2.33-1.21-2.2-.78-3.24C56.54,372,53.47,372.46,52.38,372.81Z"/></clipPath></defs><title>Artboard 1</title><path class="cls-2" d="M417,198.35c-8.77-1.88-21,3.09-21.58,13.29-.5,8.28-.09,11-4.94,14-7.44,4.59-5.52,16.93,2.61,19.15,11.39,3.12.17,4.63,17.24,5.26s17.82-6.05,25.38-11.67c6.5-4.83,6.6-17.73-1.4-21.46S434.29,202.05,417,198.35Z"/><path class="cls-3" d="M443.69,306.74l-10.4.65,2.77,61.37,2.89,0Z"/><path class="cls-3" d="M395.82,306.74l-10.4.65,2.76,61.37,2.89,0Z"/><path class="cls-4" d="M411.77,236.37s-26,6.62-21.7,43.69c0,0-13.2,7.47-10.85,21.35s29.49,16.52,37.38,15.89,34.15-1.89,35.23-20.31a21.92,21.92,0,0,0-6.1-16.3S450,234.34,411.77,236.37Z"/><path class="cls-2" d="M403.23,274.38s-21.62,8.57-18.89,22.46,19.34,13.09,32.1,12.62,28.7-1.32,30.05-13.95S436.34,272.25,403.23,274.38Z"/><path class="cls-3" d="M418.1,361.16c1-1.34.19,9.81-.55,11.12-.53.93-5.54,2.05-5.32,1,1.23-5.74-.91-9.84-.5-10.93C412.29,360.87,417.12,362.46,418.1,361.16Z"/><path class="cls-3" d="M389.46,344c1.63-.41-6,7.77-7.38,8.33-1,.4-5.6-1.87-4.77-2.55,4.55-3.72,5.44-8.25,6.45-8.84C385.12,340.18,387.88,344.44,389.46,344Z"/><path class="cls-5" d="M412.79,371.34a26.73,26.73,0,0,1-4.09,4.33l-.89,2.87,14.17-.37-.22-1.86s-3.42-3.55-3.77-5.56l-.44,1.17a2.17,2.17,0,0,0-4.24.06Z"/><g class="cls-6"><path class="cls-7" d="M426.85,375.55h.1l.09,0,.09,0,.09,0,.09,0,.08.05.08.06.07.06.07.07.06.08.06.07,0,.09,0,.08,0,.09,0,.09,0,.1,0,.09v.29l0,.1,0,.09,0,.09,0,.09,0,.08-.06.08-.06.08-.06.07-.07.06-.08.06-.08.06-.08,0-.09,0-.09,0-.1,0h-.19l-.61,0-.6,0-.61,0-.61,0-.6,0-.61,0-.6,0-.61.05-.61,0-.6,0-.61.05-.6.05-.61.06-.6.05-.61.06-.6.06-.61.06-.6.06-.61.06-.6.06-.61.07-.6.07-.61.06-.6.08-.6.07-.61.07-.6.07-.6.08-.61.08-.6.07-.6.08-.61.09h-.29l-.09,0-.1,0-.09,0-.09,0-.08-.05-.09,0-.07-.05-.08-.07-.06-.07-.07-.07-.05-.08,0-.08,0-.09,0-.09,0-.09,0-.09v-.39l0-.09,0-.1,0-.09,0-.08,0-.09.06-.08.06-.07.06-.07.07-.07.08-.06.08-.05.09-.05.08,0,.09,0,.1,0,.09,0,.61-.08.61-.08.61-.08.61-.07.6-.08.61-.08.61-.07.61-.07.61-.07.61-.07.61-.07.61-.06.61-.07.61-.06.61-.06.61-.06.62-.06.61-.06.61-.06.61-.05.61-.05.61-.05.62,0,.61-.05.61,0,.61-.05.62,0,.61,0,.61,0,.62,0,.61,0,.61,0h.19Z"/><path class="cls-7" d="M409.3,372.78l.73.31,0,.07,0,.07,0,.07,0,.08,0,.07,0,.07,0,.07,0,.08,0,.14,0,.15,0,.14,0,.15,0,.14,0,.14,0,.15,0,.14,0,.13h0l0,.14,0,.14,0,.14,0,.27v.12l0,.09,0,.1v.09l0,.12,0,.12,0,.11v.12l0,.12,0,.12v.95l0,.07,0,.07h0l-.05.08-.05.08-.07.06-.08.05-.09,0-.08,0h-.18l-.09,0-.08,0-.07-.05-.07-.06-.05-.07,0-.08,0-.05,0-.07,0-.16,0-.14,0-.14,0-.15,0-.14,0-.14,0-.14v-.14l0-.28,0-.27,0-.27,0-.26,0-.13,0-.14v-.13h0l0-.12,0-.13,0-.13,0-.12v-.09l0-.08,0-.08h0l0-.08,0-.08,0-.08,0-.08,0-.05,0,0,0-.08,0-.08v0l0-.1,0-.08,0,0,0-.06Z"/></g><path class="cls-5" d="M379.44,348.39a27.05,27.05,0,0,1-5.86-1.08l-2.9.82,8,11.68,1.45-1.2s1.11-4.8,2.61-6.19l-1.23.27a2.1,2.1,0,0,0,.24-2.73,2.07,2.07,0,0,0-2.59-.79Z"/><g class="cls-8"><path class="cls-7" d="M370.43,346.53h.08l.08,0,.09,0,.08,0,.08,0,.07,0,.08.05.07,0,.06.06.06.06.06.06.4.46.4.47.4.47.39.47.4.46.4.47.39.48.39.47.39.47.39.47.39.48.39.47.39.48.38.48.39.48.38.48.38.48.38.48.38.48.38.48.38.49.37.48.38.49.37.49.37.49.38.49.36.49.37.49.37.49.37.5.36.49.36.5,0,.07,0,.07,0,.08,0,.08,0,.08,0,.08v.43l0,.08,0,.08,0,.08,0,.08,0,.08-.05.07-.05.07-.05.07-.06.06-.06.05-.07.06-.07,0-.07,0-.08,0-.08,0-.08,0-.08,0-.09,0h-.42l-.09,0-.08,0-.07,0-.08,0-.07-.05-.07-.05-.07,0-.06-.06-.06-.07,0-.06-.36-.49-.36-.49-.36-.49-.36-.49-.37-.49-.36-.48-.37-.49-.37-.48-.37-.48-.37-.48-.37-.48-.37-.48-.38-.48-.37-.48-.38-.48-.38-.47-.38-.48-.38-.47-.38-.47-.39-.48-.38-.47-.38-.47-.39-.47-.39-.46-.39-.47-.39-.47-.39-.46-.39-.47-.4-.46-.39-.47-.4-.46-.39-.46-.06-.07,0-.07-.05-.07,0-.08,0-.08,0-.08,0-.08,0-.09v-.34l0-.08,0-.08,0-.08,0-.08,0-.08,0-.07.05-.07.05-.07.06-.06.07-.06.06-.05.07-.05.08,0,.07,0,.08,0,.08,0,.08,0,.09,0h.26Z"/><path class="cls-7" d="M376.33,346.24l.14.78-.05.06,0,.06-.05.07-.05.06,0,.06-.05.06-.05.06-.05.06-.1.11-.1.11-.1.11-.11.11-.1.1-.1.1-.11.1-.11.09-.1.1h0l-.11.09-.11.09-.11.09-.21.18-.06,0,0,0-.07.07-.06.07-.06.06h0l-.09.08-.09.08-.08.08-.09.08-.09.08-.09.08-.09.07-.1.08,0,0-.05,0-.09.07-.09.06-.08.06-.09.07h0l0,0-.06,0,0,0-.07,0h-.26l-.09,0-.08,0-.08-.05-.07-.06h0l-.05-.07,0-.08,0-.09v-.26l0-.08,0-.08,0-.05.05-.05.12-.11.1-.1.11-.1.11-.1.1-.09.11-.1.11-.09.11-.09.21-.17.22-.18.21-.17.2-.17.1-.08.1-.09.1-.08h0l.09-.08.1-.09.09-.08.09-.09,0,0,0,0,.05-.07,0-.07h0l0-.06.06-.08,0-.07.05-.07,0,0,0,0,.05-.07.05-.08h0l.1,0,.07,0,0,0,0-.05Z"/></g><path class="cls-9" d="M417.12,286.43c-3.05-.91-11.35,3.64-17.15,13.83s-18.65,43.93-18.65,43.93l7,2.62s23.85-28,30-41.08S420.17,287.34,417.12,286.43Z"/><path class="cls-9" d="M414.22,296.19c-3.1.7-8.1,8.74-8.14,20.46s5.34,47.43,5.34,47.43l7.36-1.14s7-36.13,5.91-50.5S417.32,295.48,414.22,296.19Z"/><path class="cls-10" d="M409.4,232.21s.19,5.71-1.43,9.79,10.42,7.5,12.61.52a12,12,0,0,1-1.3-8C420.2,230.29,413.81,225.47,409.4,232.21Z"/><path class="cls-11" d="M408.81,239.07a39.7,39.7,0,0,1-13.49,7.69l2,30.65,35.06,1.67,5.09-23.45-17.18-14.52Z"/><path class="cls-12" d="M420.68,211.57c-2.4-3.14-6.09-1.7-7.35,5.09-.89,4.82-10,6.52-9.86,8.19.78,8.29,7.67,12.83,10.57,12.57,7.44-.67,11.87-15,10.53-16.31C421.75,218.41,422.67,214.17,420.68,211.57Z"/><rect class="cls-13" x="385.06" y="239.26" width="59.31" height="38.38"/><circle class="cls-14" cx="414.24" cy="260.36" r="6.24"/><path class="cls-3" d="M308.87,306.74l-10.4.65,2.76,61.37,2.9,0Z"/><path class="cls-3" d="M322.42,303.83,312,307.39l2.76,61.37,2.9,0Z"/><path class="cls-3" d="M272.16,306.74l-10.4.65,2.76,61.37,2.9,0Z"/><path class="cls-11" d="M301.76,231.22s20.18-1,23.86,7.37,1,52-2.15,64.62c-1.61,6.46-8.86,9.31-16.69,11S263,313,263,313s-10.06-4.57-2.45-10.5l32.66-29.93Z"/><path class="cls-15" d="M311.64,277.28s1.31-26.18,1.55-28.09c.93-7.35,1.5-13.88-2-17.05-1.94-1.77-4.31-4.13-7.4-5.51-1.64-.73-9.21-.7-13.42,1.84-2.8,1.69-5.08,9.66-6.2,15-1.4,6.69-2.24,25.19-2.24,25.19,2.46,7.17,25.54,12.92,29.7,8.65"/><path class="cls-14" d="M290.48,228.29s-3.1,5.32,1.43,7c10.78,4,12.06-9,12.06-9,2.56.69,10.08,4.19,10.91,8.87,2,11.42,1.2,59.65,1.2,59.65l-41.15-2.34s2.25-35.35,3.73-45.86C281.09,229.31,290.48,228.29,290.48,228.29Z"/><path class="cls-14" d="M301.1,222.05c2.57,1.58,5.47-6.31,6.64-8.61s1.93-5.16.31-7.73a5.36,5.36,0,0,1-.89-1.61,3,3,0,0,1,.31-1.69c1.25-3.42-1.09-7.5-3.65-11A6.16,6.16,0,0,0,298,188.5c-8.12,0-12.5,5.39-20.58,5.58-2.37,0-4.82-.36-7.19-.33s-4.78.61-6,2.23a4,4,0,0,0,1.61,5.66,8,8,0,0,0,4.57.52c-2.05,1.82-1.2,5.48,1.24,7.72a13.93,13.93,0,0,0,9.15,3.26c2.37,0,4.7-.37,7.1.24C292,214.41,297.41,219.8,301.1,222.05Z"/><path class="cls-15" d="M295.88,234.12a9.11,9.11,0,0,0,7.68-7.4l-2.28-9.58c-.35-2.81-3.56-4.31-6.87-3.41s-4.17,4.59-3.81,7.39l.51,10.34C291.46,234.27,294.09,234.38,295.88,234.12Z"/><path class="cls-15" d="M286.53,228.62c5.65,5.08,12.18-3.42,14.57-6.57,3.55-4.69,5.45-23.43-3.73-27.24s-19.57,3.14-22.09,8.35S282.56,225.05,286.53,228.62Z"/><path class="cls-15" d="M298.4,210.73c-.41,2.53.38,4.67,1.62,4.8,4.15.44,6.1-.63,6.5-3.16a3.92,3.92,0,0,0-3.4-4.66c-2.24-.45-4.32.49-4.72,3"/><path class="cls-14" d="M274.18,202c1.15-2.73,3.93-4.78,6.82-6.06a54.21,54.21,0,0,1,8.31-2.72,27.77,27.77,0,0,1,8.5-1.18c5.43.32,6.64,6.56,6.57,10.5,0,2,1.85,3.54.43,5.08-.61.66-2.14.9-3.11,1-1.16.15,2.18,6.12-.16,7.15-.27.12-3.11-1.45-5-4.71-1.39-2.38-1.51-5.7-2.17-7.23-.32-.77-1.16-2.08-1.75-1.93a2.54,2.54,0,0,0-2.16,1c-.64.61-1.12,1.38-1.69,2a17.57,17.57,0,0,1-3.4,3.09c-2.23,1.51-5.77,2.74-8.66,1.44a4.87,4.87,0,0,1-2.77-3.13.45.45,0,0,1-.17-.28,7.74,7.74,0,0,1-.13-1.57,13,13,0,0,1,.14-2.44c0-.19.28-.2.42-.1-.06.14-.11.27-.16.41l.06,1.49a6.13,6.13,0,0,0,.05,2,.52.52,0,0,0,0,.11l0,0v.08a2.23,2.23,0,0,1,0-.23,9.52,9.52,0,0,1-.15-3.36,6.62,6.62,0,0,0-.36,2,7.61,7.61,0,0,0,.3,1.85.54.54,0,0,0,.4.1,3.26,3.26,0,0,1-.15-.44l-.09-2.15a7.2,7.2,0,0,1,.16-.78c0-.32,0-.64,0-1A.21.21,0,0,0,274.18,202Z"/><path class="cls-2" d="M245.32,306.54l48.08-.79s8.86-.51,15.1-3.4a17.79,17.79,0,0,0,7.63-7.56l-1.37-3-28.55-11-42.09,2.72Z"/><path class="cls-3" d="M292.8,361.16c1-1.34.19,9.81-.55,11.12-.52.93-5.54,2.05-5.32,1,1.23-5.74-.91-9.84-.5-10.93C287,360.87,291.82,362.46,292.8,361.16Z"/><path class="cls-3" d="M246,361.16c1-1.34.19,9.81-.55,11.12-.52.93-5.54,2.05-5.32,1,1.23-5.74-.91-9.84-.5-10.93C240.22,360.87,245.05,362.46,246,361.16Z"/><path class="cls-5" d="M288.89,370.91c.12-.43.86-3-1.56-1a14.55,14.55,0,0,1-10.92,2.37c-2.53-.42-3-.37-4.35.44-1,.56-.53,1.66-.85,2.39,15.52,2.19,22.22-.81,23-1.25-.18-2.32-1.22-2.2-.79-3.23C293.05,370.06,290,370.56,288.89,370.91Z"/><g class="cls-16"><path class="cls-17" d="M289.69,373.63c.47-.17.94-.35,1.4-.55,1.56-.59,3.74-1.62,3.82-1.66,1.57-.76,4.75.75-1.8,3.24-8.09,3.95-16.86,3.07-25.17.87l-2.83-1-.26-.45,1.2-.1c1.3.24,2.57.51,3.87.8l-1.58-.91c-.41-.44-.39-.64.13-1.08,1-.6,1.37.18,1.37.18a34.17,34.17,0,0,0,4.81,1.38c1.5-.32,6.93-2.52,10.76-1.6,0,0,2.06.27,3.13.54C288.93,373.41,289.31,373.52,289.69,373.63Zm-13.06,1.1a27.88,27.88,0,0,0,11.41-.58,36.2,36.2,0,0,0-4-1,7.49,7.49,0,0,0-3.65.31c-1,.31-1.54.61-2.09.78Zm10.15-1.51,1.06.18S286.59,373.16,286.78,373.22Z"/></g><path class="cls-5" d="M242.12,370.91c.12-.43.86-3-1.56-1a14.55,14.55,0,0,1-10.92,2.37c-2.53-.42-3-.37-4.35.44-1,.56-.53,1.66-.85,2.39,15.51,2.19,22.22-.81,22.95-1.25-.17-2.32-1.21-2.2-.78-3.23C246.28,370.06,243.21,370.56,242.12,370.91Z"/><g class="cls-18"><path class="cls-17" d="M242.92,373.63c.47-.17.94-.35,1.4-.55,1.56-.59,3.73-1.62,3.82-1.66,1.57-.76,4.75.75-1.8,3.24-8.09,3.95-16.86,3.07-25.17.87l-2.83-1-.26-.45,1.2-.1c1.3.24,2.57.51,3.87.8l-1.58-.91c-.41-.44-.39-.64.13-1.08,1-.6,1.37.18,1.37.18a34.17,34.17,0,0,0,4.81,1.38c1.5-.32,6.93-2.52,10.76-1.6,0,0,2.06.27,3.13.54C242.16,373.41,242.54,373.52,242.92,373.63Zm-13.06,1.1a27.88,27.88,0,0,0,11.41-.58,36.77,36.77,0,0,0-4-1,7.49,7.49,0,0,0-3.65.31c-1,.31-1.54.61-2.09.78ZM240,373.22l1.07.18S239.82,373.16,240,373.22Z"/></g><path class="cls-19" d="M289,281.66c-3.5.66-9.23,14.65-7.7,28,1.33,11.67,3.63,58,3.63,58l10.59-.44s6.33-51.18,6.77-61.55S292.47,281,289,281.66Z"/><path class="cls-19" d="M242.91,281.66c-3.5.66-9.23,14.65-7.7,28,1.34,11.67,3.53,58.39,3.53,58.39l9-.26s8-51.77,8.45-62.14S246.41,281,242.91,281.66Z"/><path class="cls-3" d="M308.78,230.71c2.62,0,11.05-1.77,12.83,17.16.82,8.72-.61,23.19-7.07,30.51-7.11,8.07-8.41,1.37-7.31-7.35.68-5.44.12-11.48-1.36-23.38C304.69,238.17,306.16,230.67,308.78,230.71Z"/><path class="cls-3" d="M315.39,283.71c1.25-1.34,6.24-4.7-2.5-14.59-4-4.56-12-10.72-18.87-11-7.53-.27-4.77,3.56.18,7.16,3.09,2.24,5.88,5.4,11.19,11.8C309.63,282.21,314.14,285,315.39,283.71Z"/><path class="cls-2" d="M304.4,261.64a69.22,69.22,0,0,0-.45-24.13c-1.08-5.48,3.42-10.6,9.87-7.67,11.93,5.42,8.13,30.68,8,30.69C318.05,264.86,304.4,261.64,304.4,261.64Z"/><path class="cls-3" d="M287.11,258.23l0-.06a32.47,32.47,0,0,1-1-3.3c0-.54-.1-1.38-.11-1.45-.14-1.16.16-1,.21-1,1.17-.65,1.66,1.87,3.57,3.84a8.86,8.86,0,0,0,1.34,1.09c.48,0,4.77,1,5.22,1,.29,0,3.94,7.15,1.6,7.39-6.24.65-9.42.61-10.47,1.2a28,28,0,0,0-4.56,3.33c-1.24,1.07-4.58,4.59-4.67,4.23a2,2,0,0,1,.44-1.43,28.87,28.87,0,0,1,3-4.26l1.17-1.27c.2-.22.57-.69.57-.69s-.46.36-.7.53c-.44.33-.86.78-1.32,1.09-1.35.9-4.83,4.37-5.45,4.6-.17.07-.58.35-.67,0s2.18-3.31,2.85-4c1.41-1.42,2.9-3.06,3.27-3.47,0,0,.4-.36.4-.43s-.41.17-.44.18c-.41.16-7.68,5-7.67,4.68a3.73,3.73,0,0,1,1.26-2,26.54,26.54,0,0,1,4.51-3.64c.54-.38,1.07-.74,1.59-1.16.09-.06.59-.33.59-.46s-.36.19-.41.22c-.33.12-.76.45-1.14.59A31.77,31.77,0,0,0,276,265.7c-.52.29-1.89,1.24-2,1-.41-.71,4.81-4.34,5.84-4.92A53,53,0,0,1,287.11,258.23Zm-.78-5.42"/><rect class="cls-15" x="259.93" y="274.85" width="43.6" height="3.92"/><path class="cls-3" d="M280.39,278l-5.07-43.44-52,3.33L231.43,278Z"/><path class="cls-20" d="M277.52,278.31l-5.07-43.44L220.5,238.2l8.06,40.11Z"/><ellipse class="cls-15" cx="249.49" cy="257.54" rx="4.9" ry="5.75" transform="translate(-66.18 87.48) rotate(-17.6)"/><path class="cls-3" d="M199.18,221.21c-.1-4.38-29.12-14.6-29.65-8.57-1.12,12.87,2.5,39.22,2.87,46.24.41,7.87,2.48,16.1,2.3,23.9-.24,10.38-1.6,45.76-5.5,66.55-1.44,7.65-14.53,19.36-12.19,19.79,1.51.28,12-3.19,16.44-9.38.94-1.31.55,9.46,1.29,8.3.62-1,2.41-13.91,2.81-14.66,1.16-2.2-.44-6.18.87-10.9,3.29-11.8,10.11-28.76,11.33-37.16,1-6.82-2.53-19.95-2.37-20.63,2.1-9,7.21-21.65,9.67-31.18C200.37,240.65,199.41,231.93,199.18,221.21Z"/><g class="cls-21"><path class="cls-2" d="M154.07,370.38s5.48-17.29,7.71-12.14c2.11,4.86,12.7-4.34,16.12-8.57,0,0,.9-2.38,2.56-1.19l-3.71,21.67Z"/></g><path class="cls-20" d="M207,175.53c.17.26.35.51.53.76,4,5.24,9.64,5.92,9.6,6.4-.32,3.51-3.67,10-4.07,9.95-.58,0-1.62-.7-3.81-2.61-1.74-1.52-3-3.19-3.17-3.23-.41-.11,1.35,2.74,3.23,4.89a16.23,16.23,0,0,0,3,2.65,19.24,19.24,0,0,1-2,3.7,29.82,29.82,0,0,1-4.92,4.6c-.61.45-11,2.88-16.57,3.25-15.85,1.06-20.63-5-20.63-5s-5.77-13-4.62-35.19c.14-2.6.29-6.6,1.17-9.2,2.5-7.34,1.28-22.59,17.37-25.25,10.58-1.75,21.37,5.73,22.14,17,1.71,25,16.12,24.5,16.12,24.5l-2.07,6a17,17,0,0,1-4.46-.77,24.76,24.76,0,0,1-5.68-3.78,23,23,0,0,0,1.53,1.74c2.21,2.12,4.94,4,7.83,4.29l.3.28s-5.75.18-9.7-3.61A11.05,11.05,0,0,1,207,175.53Z"/><path class="cls-3" d="M160.07,213.73c-1.78,8.43,5.08,8.94,8.09,3.76,12.29-21.15,10.7-22.16,15.22-29.73,11.65-19.51-5.61-19.5-12.33-8.36C167.36,185.51,162.89,200.33,160.07,213.73Z"/><path class="cls-3" d="M191.34,164.1c-1,1.69-7.75,1.2-11.49-.22-2.22-.85-4-4.07-4.82-7.82-1.86-9-2-15.73,4.78-17.85,0,0,9.39-4.2,13.38,2.78,3.61,6.33,2.84,11.22,1,15.46C193.65,157.57,191.94,163,191.34,164.1Z"/><path class="cls-20" d="M176.34,134.64c-.64.51-.67,8,6.32,12.64,9.62,6.36,10.42,15.2,10.42,15.2s10.52-6.12,8.59-14.85C198.59,133.71,182.1,130.1,176.34,134.64Z"/><path class="cls-3" d="M193,166c0-1,0-5.69-.87-6.71-2.78-3.34-8.76-4.66-8.54-.53a113.56,113.56,0,0,1-.46,12.69c-.15,2.13-2.11,3.83-.91,6.37C184,181.4,193.37,182,193,166Z"/><path class="cls-3" d="M179.2,230.5c-6.37-1.13-10.33-7-9.71-23.53.45-11.65,1.95-21.79,10.32-30.92,1.83-2,5-4.44,7.79-5.09,3.68-.85,7.12.45,9.1.73,2.89.39,3.29,6.9,4.43,11.54.11.43,3,6.82,2.86,7.26-2,5.46-3.79,13.12-9.54,23.89C192,219,184.06,231.36,179.2,230.5Z"/><path class="cls-3" d="M177.48,232s13.87,42.89,15.45,51.69c.85,4.74,2.89,9.53,3.13,14.36.64,12.59,1.52,47.83.71,56.32,0,.46-2.16,8.07-1.83,13.2.3,4.74,1.68,5.6,2,6.06,3.13,4.52,5.18.26,5.64-6.84.33-5.11-.76-13.24-.48-14.38,1.65-6.76,8.54-26.78,9.44-31.06,2.3-10.81-1.08-21.68-4.95-31.21-.78-1.91,3.31-17.83,4.4-34.95,1-14.78.5-34.17-17.19-44.36-.8-.47-24.46,4-24.46,4S170.56,221.64,177.48,232Z"/><g class="cls-22"><path class="cls-2" d="M199.8,376.89c-5-.08-5.77-7.86-5.66-10.41,0,0-.45-12.09.82-11.92,1.6.22.93,5.06,1.09,7.54.28,4.16,1.27,7.55,3.06,7.5,3.9-.12,2.17-9.92,2.7-15,0,0,1.94-3.13,2.3,1.4S204.75,377,199.8,376.89Z"/></g><path class="cls-3" d="M195.78,171.49s-2.35,19.67,2.85,26.3c7,9,15.46,15.72,16.8,15.44,11.07-2.3,14.1-29.1,15.71-38.49.22-1.27-2-8.83-4.74-.3-2.87,8.82-11.28,26.09-11.28,26.09S203.39,171.34,195.78,171.49Z"/><path class="cls-3" d="M230.92,174.1s10.26-2.12,17.74-3.54c0,0,1.6-.67-1.32-.53s-6.76.47-6.76.47,7.14-1.9,9.4-2.43-3.49-.85-9.15.92c0,0,6.73-2.11,9.17-3.11,1.48-.62-3-.53-9.58,1.64,0,0,5-2,7.63-3.42,1.5-.81,1.32-2.07-8.33,2.08a7.55,7.55,0,0,1-3.05,1s2-1.33,1.88-3.34c0,0-.67-.41-1.33.49a7.75,7.75,0,0,1-3.91,2.64c-2.19.76-4.43.75-5.29,3.36C225.87,176.78,230.92,174.1,230.92,174.1Z"/><path class="cls-19" d="M180.49,171.75s-10.23,10.81-11.77,47.7c-1.61,38.43.31,83,.31,83l46.15,3.21s9.71-71.59-16.65-93.31l2.88-11.55A32.68,32.68,0,0,1,196,171.05l-3.09-.2s-2.7,11.72-9.55,12.11-.25-11.16-.25-11.16Z"/><rect class="cls-14" x="169.3" y="170.92" width="32.23" height="48.06" transform="translate(-42.5 51.98) rotate(-14.34)"/><path class="cls-3" d="M180.05,191.28s-14.17,13.11-17.81,17.44c-4.85,5.77-1.59,14,1.41,13.31,5.65-1.37,16.73-14.42,22.31-26.82C191.8,182.21,180.05,191.28,180.05,191.28Z"/><path class="cls-3" d="M185.72,195.34a167.43,167.43,0,0,1,10.5-15.26s.8-1.63-1.47.47-5.12,5-5.12,5,4.37-6.36,5.81-8.32-3.45,1.69-6.72,6.94c0,0,3.88-6.25,5.11-8.7.75-1.5-2.8,1.61-6.53,7.8,0,0,2.57-5,3.65-7.9.61-1.67-.47-2.55-5.2,7.31a7.57,7.57,0,0,1-1.75,2.84,4.26,4.26,0,0,0-1-3.94s-.84.13-.7,1.29a7.71,7.71,0,0,1-1.21,4.76,12.43,12.43,0,0,0-1.81,6.27C179.1,196.72,185.72,195.34,185.72,195.34Z"/><path class="cls-20" d="M362.31,259.89c-4.67-9.48.31-15.62,7-19.17,2.34-1.23,8.16-4.64,4.88-8.77-1.29-1.63-4.31-.28-5,.15-3.16,1.88-4.05,5.2-6.51,7.59-.9.86-2.51,2.56-3.8,0s.1-5,1.13-6.86c2.55-4.51,7.32-7.06,8.88-12.28a11.45,11.45,0,0,0,.62-6c-.09-.37-.48-2-1.05-2.19-2-.72-3.87.88-4.76,1.76-2.88,2.84-3.86,7.09-4.9,11.07-.25,1-.62,6-2.69,3.75-3-3.28-2.77-7.16-2.22-10.09,1.26-6.76,5.92-11.94,8.1-18.28.81-2.37,1.9-4.84,1.56-7.69-.07-.63-.52-2.5-1.4-3-1.95-1-3.75,1.22-4.44,2.09-2.78,3.52-2.77,8.69-4.3,12.92-.4,1.13-1.15,5.49-3.7,3.82-3.37-2.21-4.29-6.7-4.87-9.48-1.6-7.67-1.64-15.27-2.55-22.81-.37-3.06-1.45-9.68-6.11-11.79-1.63-.74-2.61.74-3,1.67-1.06,2.57-.23,6.41.26,9.5,1.55,9.83,5.69,19.31,10.73,29.21a87.51,87.51,0,0,1,4.53,9.93c.25.71,1.34,2.77,1.09,3.47-.06.15-1.5-.49-1.59-.53a15,15,0,0,1-4.77-3.86c-4.07-4.54-6.61-9.75-10.57-14.35-1.31-1.52-4-4.11-5.79-3.16-2.61,1.37-1,6.18.37,9,4,8,12.52,13,19,19.55a37.7,37.7,0,0,1,5.75,7.36c.13.22,1.46,2.43,1.13,2.56-1.25.53-4.07-1.39-5.29-2.25-4.52-3.17-8.1-7.61-12.27-11.2-.86-.73-4.14-4-5.43-3.69-3.25.73.3,6,2,8.1,4.5,5.41,9.62,8.32,15.77,11.58,2.1,1.11,6.87,3.3,7.32,5.82.19,1-4.4-.8-4.68-.92-4.27-1.85-8.34-4.53-12.64-6.28-1-.4-3.81-1.74-4.08-.53-.52,2.27,3.94,5.18,6,6.32,6.39,3.57,13.79,4.89,18,11.39Z"/><path class="cls-2" d="M366.77,172.49c2.54-7.55-2.33-9.5-2.67-6.26-.32,3,2.11,5.85,2.55,6.34a.42.42,0,0,0-.13.18l-.61,1.23c-.31.76-.6,1.52-.88,2.28-.52-1.14-2.45-5-5.13-6.14-3.11-1.28-2.64,5.44,5,6.43-.65,1.81-1.21,3.64-1.71,5.49-.92-1.91-3-5.79-5.53-7.11-3.26-1.72-2.27,6.11,5.29,8-.1.38-.2.75-.29,1.13l-.05.18c-.33,1.41-.64,2.81-.93,4.22-1.6-1.41-6.22-5.22-9.74-5.67-4.21-.55.86,7.28,9.61,6.29-.41,2-.78,4.08-1.09,6.12-2.15-1.57-8.09-5.67-12-6.07-4.73-.47,2.63,8.1,11.9,6.84-.33,2.22-.6,4.43-.81,6.65-2.69-1-10.59-3.77-14.61-2.64-4.68,1.33,6.36,8.79,14.52,3.71q-.25,3.08-.33,6.13c0,1,0,2,0,3-2.62-1.31-8.57-3.89-12.88-3-5.49,1.14,1.89,9.18,12.91,4.33a84.79,84.79,0,0,0,.66,8.48c-2.12-.46-8.14-1.43-13,1.31-5.86,3.33.59,9.67,13.07-.55.33,2.4.75,4.76,1.27,7.06-2,.36-8.59,1.86-12.56,6.35-4.63,5.26,3.91,8.26,12.7-5.72q.9,3.84,2.11,7.43s0,.15.51.36l.21-.65q-.72-2.79-1.27-5.66s-.61-2.88-1-5.23c-.16-1-.31-2.08-.44-3.13,11.5,7.4,18.42-.24,12.85-2.35-4.62-1.76-10.78.47-13,1.38-.35-3.13-.55-6.31-.61-9.49,8.5,7.64,19.57,1.26,14.73-1-4.32-2-12.75,0-14.74.49,0-2.6,0-5.2.13-7.76,5.72,6,18.92,1.47,15.12-.76-3.32-1.95-12-1-15.05-.64.08-1.31.18-2.61.3-3.89,8.41,2.45,18.63-4.5,13.92-4.79-3.87-.25-11,2.62-13.84,3.85.25-2.47.55-4.89.92-7.23h0c7.91,2.33,15.79-4.1,11.57-4.35-3.43-.21-9.11,2.37-11.44,3.51.22-1.4.45-2.8.71-4.2l.27-1.43c7.5,2.27,13.44-3.7,9.63-3.92-3.08-.18-7.68,2.22-9.5,3.25.45-2.21,1-4.42,1.57-6.61,7.16,2.24,11.46-3.33,8-3.52-2.83-.16-6.57,2.16-7.9,3.06.37-1.25.77-2.49,1.22-3.72,0-.11.07-.23.11-.35.11-.37.23-.73.36-1.09h0c7,.56,8.83-5.26,5.82-4.7-2.73.51-5.38,3.92-5.86,4.58l0-.07Z"/><path class="cls-11" d="M381.4,189.18c3.12,1.7,5.87,18.71-.31,42.23-3.36,12.83-15.29,31.27-19.81,29.35-3.18-1.34-5.52-15.67,1-39.53C365.76,208.73,378.27,187.49,381.4,189.18Z"/><g class="cls-23"><path class="cls-2" d="M378,202q1.38-5,2.65-10.1c.6-2.4,1.55-4.58,2.15-7,.11-.47,0-1.41-.29-.9,0,0,0,.12,0,.18-.09,1.06-2.71,9.34-4.46,15.59-.31,1.11-.62,2.22-.94,3.32.07-4.21-.9-6.91-1.55-10.2,0,0-.85-4-1.25-6.14,0,0-.08-.49-.34.07.17,1.31.33,2.62.5,3.92.19,1.53.16,1.28.31,2.35.23,1.55.48,3.1.72,4.65a54.7,54.7,0,0,1,1,6.58c.06.42,0-.15,0,.29a.44.44,0,0,0,.11.24q-1.68,5.85-3.49,11.64c-.06-5-2.1-15.43-3.4-21.69a13.09,13.09,0,0,0-1-2.57c-.1,0-.34-.16-.28-.05s.95,4.14,1.37,6.62c.9,5.32,1.51,10.55,2.6,16.08.1.54,0,.56.26,1.72,0,0,.1.39.19.66-.28.91-.56,1.81-.85,2.72-.27-2.58-.87-5.47-1.18-7.66-.47-3.22-.93-6.44-1.61-9.61-.11-.53-.68-3.14-.64-3.34.26-1.26-.34-.31-.35-.39a8.7,8.7,0,0,0,.07,1.8c.06.43.15.85.23,1.27,1,5.14,1.53,8.52,2.15,12.68,0,.23.08.46.11.69l.36,2c0,.23.07.45.1.68.15,1,.29,2.27.38,3q-1.65,5.15-3.36,10.23c-.67-8.84-2.26-17.57-3.43-25.21-.2-1.36-.09-1.13-.09-1.13s.07-.51-.39-.14c-.44,2.51.58,6,1.07,9.6.76,5.69,1.27,11,2.13,17.18.07.52.13.93.18,1.25-.44,1.28-.88,2.56-1.33,3.84-.84-8.74-1.61-18.21-2.87-25.84-.56-3.24-.5-.36-.5-.34s0,.06,0,0c0,.15-.14-1.39.22,1.68.38,3.38.45,6.75.76,10.29,0,0,.37,3.92.61,6.23.35,3.11.76,6.21,1.15,9.32.16,1.46.22-.51.19.85l-.15-.56q-.86,2.43-1.73,4.85c-.09-.09-.16-.14-.15-.12h0c-.22-.55-.21-.64-.36-1-1.6-3.35-2.48-7.26-3.76-12.52-.62-2.58-1.18-5.18-1.57-7.76,0,0-.08-.62-.44.06.43,6.12,1.7,10.78,3,16a14.35,14.35,0,0,0,3,6.17h0q-1.2,3.33-2.44,6.63l-.21-.37s-1.18-2.5-1.77-4a39.13,39.13,0,0,1-2.71-9c-.1-.58-.23-1-.62-.22a41.16,41.16,0,0,0,3.22,10.85,15.21,15.21,0,0,0,1.17,2.19l.69,1.1q-.89,2.34-1.78,4.68c-1.29,3.37-2.43,6.82-3.69,10.21-.29.83-.69,2.28-.69,2.28-.29.73-.07.29-.34.63l0,.45a.42.42,0,0,0,.43-.06c.88-1.05,1.12-2.67,1.74-4.3q1.94-5.2,3.89-10.52l0-.08.09-.25a14.81,14.81,0,0,0,5.59.68c1.89-.24,3.77-.5,5.65-.85,0,0,2.64-.59,5.09-1.43l.46-.38-4.07.62c-3.6.52-7.16,1-10.85,1.26a11.42,11.42,0,0,1-1.17,0c-.83,0,.25,0-.65-.07h0q1.08-3,2.16-5.95a19.3,19.3,0,0,0,3.7.16c1.72-.16,3.44-.4,5.14-.73,2.95-.57,6-.87,8.64-2.56l.3-.19s.67-.92-.71-.18c-4.33,2.25-9.35,2.54-14.17,3-.89.07-1.86-.31-2.65-.17l1-2.93c.45-.09.42-.41.26-.73l1.32-3.73.1.06c5.11-.1,10.66-.19,15.83-2.29,1.53-.63,2.12-1.15,4.47-2.39l.12-.31a.45.45,0,0,0-.37-.12c-2,.57-3.93,1.78-6,2.49-4.58,1.6-9.42,1.63-14,2.06l.21-.59c.58-.19,1.58-.66,2.49-1,2-.75,4-1.32,6.06-2l1.29-.47a66.59,66.59,0,0,0,8.46-3.71s1.18-.72,2-1.27l.09-.36a.45.45,0,0,0-.47,0,82.76,82.76,0,0,1-9.87,4.26s-2.25.88-3.68,1.46c-1,.41-2.1.76-3.14,1.15a15.71,15.71,0,0,0-2.92,1.15c.48-1.37.95-2.73,1.42-4.1a.12.12,0,0,0,0,.05l.1-.41c.5-1.49,1-3,1.51-4.49a45.78,45.78,0,0,1,4.41-2.09c4.78-1.88,9.38-4.46,14.29-6.27l.14-.31a.48.48,0,0,0-.48-.12c-6,1.89-12.11,4-17.7,7.61a3.25,3.25,0,0,0-.37.3c.43-1.29.86-2.58,1.28-3.88a24.29,24.29,0,0,0,2.92-1.56c4.61-3.05,9.52-5.53,13.64-9.62l.2-.53a.41.41,0,0,0-.44.08c-5.07,4.49-10.88,7.52-16.2,11.27h0c.23-.69.45-1.39.68-2.09a.65.65,0,0,0,.15-.47v0q1.57-4.94,3.08-9.95c.3-.24.74-.61,1.36-1.18,2.7-2.47,5.75-4.36,8.5-6.66a17.9,17.9,0,0,0,1.5-1.4c1-1.08,2.42-2.86,2.42-2.86s.22-.29-.22-.31a42.42,42.42,0,0,1-4.39,4.14c-3,2.48-6.31,4.42-9,7.51.75-2.53,1.49-5.07,2.2-7.62.2-.25.49-.64.89-1.2,2.46-3.37,6-5.27,9.08-7.76,0,0,1-1.41-.22-.52-.91.64-2.14,1.53-2.14,1.53C382.14,197.7,379.91,199.36,378,202Zm-14.67,8.16,19.49-25.83-.3-.17v0Z"/></g><rect class="cls-24" x="350.43" y="252.79" width="19.71" height="25.29"/><rect class="cls-25" x="28.8" y="278.09" width="450.86" height="6.11"/><path class="cls-15" d="M121.9,279.18s1.31-26.19,1.55-28.09c.93-7.36,1.5-13.89-2-17.06-1.95-1.76-4.31-4.12-7.4-5.5-1.65-.74-9.21-.71-13.42,1.83-2.8,1.69-5.08,9.66-6.2,15C93,252,92.2,270.52,92.2,270.52c2.46,7.17,25.54,12.93,29.7,8.66"/><path class="cls-14" d="M100.74,230.18s-3.1,5.32,1.43,7c10.78,4,12.06-9,12.06-9,2.56.68,10.08,4.18,10.91,8.86,2,11.42,1.2,59.65,1.2,59.65l-41.15-2.34s2.25-35.35,3.73-45.86C91.35,231.2,100.74,230.18,100.74,230.18Z"/><path class="cls-14" d="M110.21,224.72c2,2.25,7-4.48,8.83-6.35s3.31-4.39,2.5-7.32a5.68,5.68,0,0,1-.4-1.8,3,3,0,0,1,.79-1.53c2.18-2.92,1.09-7.5-.35-11.59a7.3,7.3,0,0,0-1.55-2.71,7.38,7.38,0,0,0-3.25-1.75c-7.79-2.29-13.52,1.6-21.32-.54-2.28-.62-4.51-1.72-6.79-2.36s-4.75-.79-6.37.42a4,4,0,0,0-.07,5.89,8,8,0,0,0,4.22,1.8c-2.48,1.16-2.71,4.91-1,7.76a14,14,0,0,0,7.83,5.73c2.26.71,4.62,1,6.74,2.26C103.66,214.8,107.32,221.51,110.21,224.72Z"/><path class="cls-15" d="M106.14,236a9.11,9.11,0,0,0,7.68-7.4L111.54,219c-.36-2.8-3.56-4.3-6.87-3.41s-4.17,4.59-3.81,7.4l.51,10.33C101.72,236.16,104.35,236.27,106.14,236Z"/><path class="cls-3" d="M89.57,203.17s.65,14.35,4.37,18.72c0,0,2.76,4.9,11.17,6.75,0,0,10.28-21.14,1.32-23.66C86.6,199.41,89.57,203.17,89.57,203.17Z"/><path class="cls-14" d="M94.93,218.94c2.31,5.71,5,7.92,8.94,8.41,3.44.44,6.78-1.49,8.27-2.58,4.75-3.49,10-21,2.28-27.22s-19.65-2.58-23.55,1.7S92.93,214,94.93,218.94Z"/><path class="cls-14" d="M90.14,197.82c1.89-2.29,5.13-3.46,8.27-3.86a54.2,54.2,0,0,1,8.75-.24,28.12,28.12,0,0,1,8.48,1.3c5.11,1.86,4.48,8.18,3.29,11.94-.61,1.93.76,3.93-1,5-.78.45-2.31.25-3.27.09-1.16-.19.33,6.48-2.2,6.8-.3,0-2.56-2.28-3.47-5.95-.65-2.68.19-5.89,0-7.54-.1-.84-.52-2.33-1.13-2.36a2.56,2.56,0,0,0-2.37.37c-.78.4-1.46,1-2.2,1.47a18.2,18.2,0,0,1-4.14,2c-2.57.81-6.31,1-8.71-1.11A4.83,4.83,0,0,1,88.64,202a.5.5,0,0,1-.09-.32,7.51,7.51,0,0,1,.33-1.54,12.78,12.78,0,0,1,.83-2.3c.08-.17.33-.12.43,0l-.27.34-.37,1.45a6.2,6.2,0,0,0-.52,1.92.49.49,0,0,0,0,.12v0l0,.07,0-.23a9.59,9.59,0,0,1,.81-3.26,7,7,0,0,0-.91,1.82,7.84,7.84,0,0,0-.24,1.86.58.58,0,0,0,.36.21,3.71,3.71,0,0,1,0-.47l.53-2.08a6.94,6.94,0,0,1,.38-.71c.09-.31.19-.61.29-.9A.19.19,0,0,0,90.14,197.82Z"/><path class="cls-2" d="M55.58,308.43l48.08-.79s8.86-.5,15.1-3.4a17.8,17.8,0,0,0,7.63-7.55l-1.38-3-28.55-11-42.08,2.71Z"/><path class="cls-3" d="M103.06,363.06c1-1.34.19,9.8-.55,11.12-.53.93-5.54,2-5.32,1,1.23-5.75-.91-9.85-.5-10.94C97.25,362.76,102.08,364.36,103.06,363.06Z"/><path class="cls-3" d="M56.29,363.06c1-1.34.19,9.8-.55,11.12-.53.93-5.54,2-5.32,1,1.23-5.75-.91-9.85-.5-10.94C50.48,362.76,55.31,364.36,56.29,363.06Z"/><path class="cls-5" d="M99.15,372.81c.12-.44.86-3-1.56-1a14.59,14.59,0,0,1-10.92,2.37c-2.53-.42-3-.38-4.35.44-1,.56-.53,1.65-.85,2.38,15.51,2.19,22.22-.8,23-1.24-.18-2.33-1.22-2.2-.79-3.24C103.31,372,100.24,372.46,99.15,372.81Z"/><g class="cls-26"><path class="cls-17" d="M100,375.52c.47-.16.94-.35,1.4-.55,1.56-.58,3.73-1.61,3.82-1.65,1.57-.77,4.75.75-1.8,3.23-8.09,4-16.86,3.08-25.17.87l-2.83-1-.26-.46,1.2-.1c1.3.25,2.57.51,3.87.81l-1.58-.91c-.41-.45-.39-.65.13-1.08,1-.61,1.37.18,1.37.18a34.15,34.15,0,0,0,4.81,1.37c1.5-.31,6.93-2.52,10.76-1.6,0,0,2.06.27,3.13.54Zm-13.06,1.11A27.71,27.71,0,0,0,98.3,376a39.21,39.21,0,0,0-4-1,7.34,7.34,0,0,0-3.65.32c-1,.31-1.54.6-2.09.78ZM97,375.11l1.07.18S96.85,375.06,97,375.11Z"/></g><path class="cls-5" d="M52.38,372.81c.12-.44.86-3-1.56-1A14.59,14.59,0,0,1,39.9,374.2c-2.53-.42-3-.38-4.35.44-1,.56-.54,1.65-.85,2.38,15.51,2.19,22.21-.8,22.95-1.24-.17-2.33-1.21-2.2-.78-3.24C56.54,372,53.47,372.46,52.38,372.81Z"/><g class="cls-27"><path class="cls-17" d="M53.18,375.52c.47-.16.94-.35,1.4-.55,1.56-.58,3.73-1.61,3.82-1.65,1.57-.77,4.75.75-1.8,3.23-8.09,4-16.86,3.08-25.17.87l-2.83-1-.26-.46,1.2-.1c1.3.25,2.57.51,3.87.81l-1.58-.91c-.41-.45-.39-.65.13-1.08,1-.61,1.37.18,1.37.18a34.4,34.4,0,0,0,4.8,1.37c1.51-.31,6.94-2.52,10.77-1.6,0,0,2.06.27,3.13.54Zm-13.06,1.11A27.71,27.71,0,0,0,51.53,376a39.21,39.21,0,0,0-4-1,7.34,7.34,0,0,0-3.65.32c-1,.31-1.54.6-2.09.78Zm10.14-1.52,1.07.18S50.08,375.06,50.26,375.11Z"/></g><path class="cls-3" d="M93,278.1l-3.35-39.41L36,238l8.07,40.11Z"/><path class="cls-20" d="M97.26,278l-4-39.24-53-.88L48.3,278h49Z"/><path class="cls-28" d="M94.65,273.22l-4.34-29.77L45.87,241.9l5.77,31.2Z"/><path class="cls-2" d="M99.23,283.55c-3.5.67-9.23,14.66-7.7,28,1.33,11.67,3.63,58,3.63,58l10.59-.44s6.33-51.17,6.77-61.55S102.73,282.88,99.23,283.55Z"/><path class="cls-2" d="M54.54,285.25c-3.5.67-10.6,13-9.07,26.33C46.81,323.25,49,370,49,370l9-.26s8-51.76,8.44-62.14S58,284.58,54.54,285.25Z"/><path class="cls-3" d="M119,232.61c2.62,0,11-1.78,12.83,17.16.82,8.71-.61,23.18-7.07,30.5-7.11,8.07-8.41,1.37-7.31-7.35.68-5.43.12-11.48-1.36-23.37C115,240.07,116.42,232.57,119,232.61Z"/><path class="cls-3" d="M125.65,285.6c1.25-1.33,6.24-4.69-2.5-14.59-4-4.55-12-10.72-18.87-11-7.53-.28-4.77,3.56.18,7.16,3.09,2.24,5.88,5.39,11.19,11.79C119.89,284.1,124.4,286.93,125.65,285.6Z"/><path class="cls-2" d="M114.66,263.53a69.2,69.2,0,0,0-.45-24.13c-1.08-5.48,3.42-10.59,9.87-7.66,11.93,5.42,8.13,30.67,8,30.69C128.31,266.75,114.66,263.53,114.66,263.53Z"/><path class="cls-3" d="M97.37,260.12l0-.06a32.61,32.61,0,0,1-1-3.29c-.06-.55-.1-1.38-.11-1.46-.14-1.16.16-1,.21-1,1.17-.65,1.66,1.88,3.57,3.85a9.51,9.51,0,0,0,1.34,1.09c.48,0,4.77,1,5.22,1,.29,0,3.94,7.15,1.6,7.4-6.24.65-9.42.6-10.47,1.19a28,28,0,0,0-4.56,3.33c-1.24,1.07-4.58,4.6-4.67,4.23a2,2,0,0,1,.44-1.43,29.41,29.41,0,0,1,3-4.26l1.17-1.27c.2-.22.57-.68.57-.68l-.7.52c-.44.34-.86.79-1.32,1.09-1.35.91-4.83,4.37-5.45,4.61-.17.06-.58.34-.67,0-.13-.53,2.18-3.31,2.85-4,1.41-1.43,2.9-3.06,3.27-3.47,0-.05.4-.36.4-.44s-.41.18-.44.19c-.41.15-7.69,5-7.67,4.67,0-.75.73-1.45,1.25-2a28.05,28.05,0,0,1,4.52-3.64c.54-.38,1.07-.74,1.59-1.15.09-.07.59-.33.59-.47s-.36.2-.41.22c-.33.13-.76.45-1.14.59a33.09,33.09,0,0,0-4.07,2.15c-.52.3-1.89,1.25-2,1-.4-.7,4.82-4.34,5.85-4.92A54.19,54.19,0,0,1,97.37,260.12Zm-.78-5.42"/><path class="cls-3" d="M92.76,313.65l-10.4.72,2.77,67.56,2.89,0Z"/><path class="cls-3" d="M129.64,307.88,119.2,312,122,382.85l2.89,0Z"/><path class="cls-3" d="M69.18,310.83l-10.4.72L61.54,379l2.89,0Z"/><path class="cls-11" d="M86.1,232.45c9.44-10.16,51.6-9,54.56.1s.17,65.52-8.53,79.7c-7.88,12.84-35.61,4.38-43.7,5.4s-33.93-5.38-33.93-5.38S44.73,306.57,53,301l31-7.5S76.66,242.62,86.1,232.45Z"/></svg>